<svg width="515" height="318" viewBox="0 0 515 318" fill="none" xmlns="http://www.w3.org/2000/svg">
<path d="M368.661 0H146.339C102.535 0 67.0538 35.5469 67.0538 79.3904V238.61C67.0538 282.453 102.535 318 146.339 318H368.661C395.28 318 418.8 304.881 433.188 284.746C442.521 271.762 447.98 255.81 447.98 238.61V79.3904C447.98 35.5469 412.465 0 368.661 0ZM368.661 250.549H146.339C139.768 250.549 134.445 245.186 134.445 238.61V79.3904C134.445 72.8139 139.768 67.4515 146.339 67.4515H368.661C375.232 67.4515 380.589 72.8139 380.589 79.3904V238.61C380.589 238.61 380.589 238.947 380.556 239.115C380.32 245.456 375.063 250.549 368.661 250.549Z" fill="#043780"/>
<path d="M515 126.539H0V191.394H515V126.539Z" fill="#043780"/>
<path d="M504.824 251.594V317.562L504.386 318L464.154 299.552C457.583 296.416 451.147 293.346 444.88 290.345C440.702 288.355 436.793 286.466 433.188 284.746C431.368 283.87 429.65 283.026 427.965 282.217C422.978 279.789 418.766 277.563 415.363 275.573L402.087 248.997L380.556 239.115C380.556 239.115 380.589 238.778 380.589 238.61L380.589 177.195C386.553 180.028 392.585 182.996 398.65 186.031C408.927 191.157 419.204 196.587 429.481 202.321L442.757 224.58L447.98 226.839L504.824 251.594Z" fill="#043780"/>
</svg>
