<svg width="740" height="199" viewBox="0 0 740 199" fill="none" xmlns="http://www.w3.org/2000/svg">
<path d="M233.761 163.118C227.716 163.118 222.125 161.608 216.987 158.587C211.85 155.567 207.77 151.489 204.747 146.353C201.725 141.218 200.214 135.63 200.214 129.589V0H235.348V127.776H327.829V0H363.416V129.589C363.416 135.63 361.829 141.218 358.656 146.353C355.634 151.489 351.554 155.567 346.416 158.587C341.429 161.608 335.914 163.118 329.869 163.118H233.761Z" fill="#025EC4"/>
<path d="M421.472 163.118C415.428 163.118 409.836 161.608 404.698 158.587C399.561 155.567 395.481 151.489 392.458 146.353C389.436 141.218 387.925 135.63 387.925 129.589V114.409H423.059V127.776H515.54V99.2304H421.472C415.428 99.2304 409.836 97.72 404.698 94.6993C399.561 91.6786 395.481 87.6761 392.458 82.692C389.436 77.5568 387.925 71.8929 387.925 65.7005V33.5299C387.925 27.3374 389.436 21.7491 392.458 16.7649C395.481 11.6297 399.561 7.55178 404.698 4.53106C409.836 1.51036 415.428 0 421.472 0H517.58C523.624 0 529.14 1.51036 534.127 4.53106C539.265 7.55178 543.345 11.6297 546.367 16.7649C549.541 21.7491 551.127 27.3374 551.127 33.5299V48.709H515.54V35.3423H423.059V63.888H517.58C523.624 63.888 529.14 65.3984 534.127 68.4191C539.265 71.4398 543.345 75.5178 546.367 80.653C549.541 85.6372 551.127 91.2255 551.127 97.4179V129.589C551.127 135.63 549.541 141.218 546.367 146.353C543.345 151.489 539.265 155.567 534.127 158.587C529.14 161.608 523.624 163.118 517.58 163.118H421.472Z" fill="#025EC4"/>
<path d="M576.542 163.118V0H705.971C712.166 0 717.758 1.51036 722.744 4.53106C727.882 7.55178 731.962 11.6297 734.985 16.7649C738.158 21.7491 739.745 27.3374 739.745 33.5299V129.589C739.745 135.63 738.158 141.218 734.985 146.353C731.962 151.489 727.882 155.567 722.744 158.587C717.758 161.608 712.166 163.118 705.971 163.118H576.542ZM611.45 127.776H704.157V35.3423H611.45V127.776Z" fill="#025EC4"/>
<path fill-rule="evenodd" clip-rule="evenodd" d="M127.615 122.765V35.3423L35.1338 35.3423V127.776H82.2985H127.615V122.765ZM158.442 146.353C157.548 147.872 156.562 149.299 155.483 150.633L163.133 158.283L163.372 198.663L117.641 163.118H33.5471C27.5026 163.118 21.9114 161.608 16.7736 158.587C11.6358 155.567 7.55568 151.489 4.53339 146.353C1.51114 141.218 0 135.63 0 129.589V33.5299C0 27.3375 1.51114 21.7491 4.53339 16.765C7.55568 11.6298 11.6358 7.55178 16.7736 4.53107C21.9114 1.51036 27.5026 4.39727e-06 33.5471 4.39727e-06L129.655 0C135.7 0 141.215 1.51035 146.202 4.53106C151.34 7.55178 155.42 11.6298 158.442 16.7649C161.615 21.7491 163.202 27.3374 163.202 33.5299V127.776L163.202 129.589C163.202 135.63 161.616 141.218 158.442 146.353Z" fill="#025EC4"/>
</svg>
