<svg width="834" height="220" viewBox="0 0 834 220" fill="none" xmlns="http://www.w3.org/2000/svg">
<path d="M251.978 0H100.022C70.0822 0 45.8309 24.5922 45.8309 54.9242V165.076C45.8309 195.408 70.0822 220 100.022 220H251.978C270.172 220 286.248 210.924 296.082 196.994C302.461 188.011 306.192 176.975 306.192 165.076V54.9242C306.192 24.5922 281.918 0 251.978 0ZM251.978 173.335H100.022C95.531 173.335 91.8922 169.626 91.8922 165.076V54.9242C91.8922 50.3744 95.531 46.6645 100.022 46.6645H251.978C256.469 46.6645 260.131 50.3744 260.131 54.9242V165.076C260.131 165.076 260.131 165.309 260.108 165.426C259.947 169.812 256.354 173.335 251.978 173.335Z" fill="black"/>
<path d="M352 87.5427H0V132.411H352V87.5427Z" fill="black"/>
<path d="M345.045 174.059V219.697L344.745 220L317.247 207.237C312.756 205.067 308.357 202.944 304.073 200.868C301.217 199.491 298.546 198.184 296.082 196.994C294.838 196.388 293.663 195.804 292.512 195.244C289.103 193.565 286.225 192.025 283.898 190.648L274.824 172.262L260.108 165.426C260.108 165.426 260.131 165.192 260.131 165.076L260.131 122.588C264.207 124.548 268.33 126.601 272.475 128.701C279.5 132.247 286.524 136.004 293.548 139.97L302.622 155.37L306.192 156.933L345.045 174.059Z" fill="black"/>
<path d="M482.6 158V139.28L502.62 137.72H513.28V158H482.6ZM428.26 158C424.793 158 421.587 157.133 418.64 155.4C415.693 153.667 413.353 151.327 411.62 148.38C409.887 145.433 409.02 142.227 409.02 138.76V83.64C409.02 80.0867 409.887 76.88 411.62 74.02C413.353 71.0733 415.693 68.7333 418.64 67C421.587 65.2667 424.793 64.4 428.26 64.4H483.38C486.847 64.4 490.01 65.2667 492.87 67C495.817 68.7333 498.157 71.0733 499.89 74.02C501.71 76.88 502.62 80.0867 502.62 83.64V138.76C502.62 142.227 501.71 145.433 499.89 148.38C498.157 151.327 495.817 153.667 492.87 155.4C490.01 157.133 486.847 158 483.38 158H428.26ZM429.17 137.72H482.21V84.68H429.17V137.72Z" fill="black"/>
<path d="M543.153 158C539.686 158 536.479 157.133 533.533 155.4C530.586 153.667 528.246 151.327 526.513 148.38C524.779 145.433 523.913 142.227 523.913 138.76V64.4H544.063V137.72H597.103V64.4H617.513V138.76C617.513 142.227 616.603 145.433 614.783 148.38C613.049 151.327 610.709 153.667 607.763 155.4C604.903 157.133 601.739 158 598.273 158H543.153Z" fill="black"/>
<path d="M650.809 158C647.342 158 644.135 157.133 641.189 155.4C638.242 153.667 635.902 151.327 634.169 148.38C632.435 145.433 631.569 142.227 631.569 138.76V130.05H651.719V137.72H704.759V121.34H650.809C647.342 121.34 644.135 120.473 641.189 118.74C638.242 117.007 635.902 114.71 634.169 111.85C632.435 108.903 631.569 105.653 631.569 102.1V83.64C631.569 80.0867 632.435 76.88 634.169 74.02C635.902 71.0733 638.242 68.7333 641.189 67C644.135 65.2667 647.342 64.4 650.809 64.4H705.929C709.396 64.4 712.559 65.2667 715.419 67C718.365 68.7333 720.706 71.0733 722.439 74.02C724.259 76.88 725.169 80.0867 725.169 83.64V92.35H704.759V84.68H651.719V101.06H705.929C709.396 101.06 712.559 101.927 715.419 103.66C718.365 105.393 720.706 107.733 722.439 110.68C724.259 113.54 725.169 116.747 725.169 120.3V138.76C725.169 142.227 724.259 145.433 722.439 148.38C720.706 151.327 718.365 153.667 715.419 155.4C712.559 157.133 709.396 158 705.929 158H650.809Z" fill="black"/>
<path d="M739.745 158V64.4H813.975C817.528 64.4 820.735 65.2667 823.595 67C826.542 68.7333 828.882 71.0733 830.615 74.02C832.435 76.88 833.345 80.0867 833.345 83.64V138.76C833.345 142.227 832.435 145.433 830.615 148.38C828.882 151.327 826.542 153.667 823.595 155.4C820.735 157.133 817.528 158 813.975 158H739.745ZM759.765 137.72H812.935V84.68H759.765V137.72Z" fill="black"/>
</svg>
