<svg width="728" height="162" viewBox="0 0 728 162" fill="none" xmlns="http://www.w3.org/2000/svg">
<path d="M186.12 0H73.8799C51.7652 0 33.8524 18.1088 33.8524 40.4442V121.556C33.8524 143.891 51.7652 162 73.8799 162H186.12C199.559 162 211.433 155.317 218.697 145.059C223.409 138.445 226.165 130.318 226.165 121.556V40.4442C226.165 18.1088 208.235 0 186.12 0ZM186.12 127.638H73.8799C70.5627 127.638 67.8749 124.906 67.8749 121.556V40.4442C67.8749 37.0939 70.5627 34.3621 73.8799 34.3621H186.12C189.437 34.3621 192.142 37.0939 192.142 40.4442V121.556C192.142 121.556 192.142 121.728 192.125 121.814C192.006 125.044 189.352 127.638 186.12 127.638Z" fill="black"/>
<path d="M260 64.4632H0V97.5024H260V64.4632Z" fill="black"/>
<path d="M254.863 128.171V161.777L254.641 162L234.33 152.602C231.013 151.004 227.764 149.441 224.6 147.912C222.49 146.898 220.517 145.936 218.697 145.059C217.778 144.613 216.91 144.183 216.06 143.771C213.542 142.534 211.416 141.4 209.698 140.386L202.995 126.848L192.125 121.814C192.125 121.814 192.142 121.642 192.142 121.556V90.2692C195.153 91.7124 198.198 93.2243 201.26 94.7706C206.449 97.3821 211.637 100.148 216.825 103.069L223.528 114.409L226.165 115.56L254.863 128.171Z" fill="black"/>
<path d="M597.444 144V14.4H700.224C705.144 14.4 709.584 15.6 713.544 18C717.624 20.4 720.864 23.64 723.264 27.72C725.784 31.68 727.044 36.12 727.044 41.04V117.36C727.044 122.16 725.784 126.6 723.264 130.68C720.864 134.76 717.624 138 713.544 140.4C709.584 142.8 705.144 144 700.224 144H597.444ZM625.164 115.92H698.784V42.48H625.164V115.92Z" fill="black"/>
<path d="M474.301 144C469.501 144 465.061 142.8 460.981 140.4C456.901 138 453.661 134.76 451.261 130.68C448.861 126.6 447.661 122.16 447.661 117.36V105.3H475.561V115.92H549.001V93.24H474.301C469.501 93.24 465.061 92.04 460.981 89.64C456.901 87.24 453.661 84.06 451.261 80.1C448.861 76.02 447.661 71.52 447.661 66.6V41.04C447.661 36.12 448.861 31.68 451.261 27.72C453.661 23.64 456.901 20.4 460.981 18C465.061 15.6 469.501 14.4 474.301 14.4H550.621C555.421 14.4 559.801 15.6 563.761 18C567.841 20.4 571.081 23.64 573.481 27.72C576.001 31.68 577.261 36.12 577.261 41.04V53.1H549.001V42.48H475.561V65.16H550.621C555.421 65.16 559.801 66.36 563.761 68.76C567.841 71.16 571.081 74.4 573.481 78.48C576.001 82.44 577.261 86.88 577.261 91.8V117.36C577.261 122.16 576.001 126.6 573.481 130.68C571.081 134.76 567.841 138 563.761 140.4C559.801 142.8 555.421 144 550.621 144H474.301Z" fill="black"/>
<path d="M325.239 144C320.439 144 315.999 142.8 311.919 140.4C307.839 138 304.599 134.76 302.199 130.68C299.799 126.6 298.599 122.16 298.599 117.36V14.4H326.499V115.92H399.939V14.4H428.199V117.36C428.199 122.16 426.939 126.6 424.419 130.68C422.019 134.76 418.779 138 414.699 140.4C410.739 142.8 406.359 144 401.559 144H325.239Z" fill="black"/>
</svg>
