<svg width="358" height="347" viewBox="0 0 358 347" fill="none" xmlns="http://www.w3.org/2000/svg">
<path d="M251.978 0H100.022C70.0822 0 45.8309 24.5922 45.8309 54.9242V165.076C45.8309 195.408 70.0822 220 100.022 220H251.978C270.172 220 286.248 210.924 296.082 196.994C302.461 188.011 306.192 176.975 306.192 165.076V54.9242C306.192 24.5922 281.918 0 251.978 0ZM251.978 173.335H100.022C95.531 173.335 91.8922 169.626 91.8922 165.076V54.9242C91.8922 50.3744 95.531 46.6645 100.022 46.6645H251.978C256.469 46.6645 260.131 50.3744 260.131 54.9242V165.076C260.131 165.076 260.131 165.309 260.108 165.426C259.947 169.812 256.354 173.335 251.978 173.335Z" fill="black"/>
<path d="M352 87.5427H0V132.411H352V87.5427Z" fill="black"/>
<path d="M345.045 174.059V219.697L344.745 220L317.247 207.237C312.756 205.067 308.357 202.944 304.073 200.868C301.217 199.491 298.546 198.184 296.082 196.994C294.838 196.388 293.663 195.804 292.512 195.244C289.103 193.565 286.225 192.025 283.898 190.648L274.824 172.262L260.108 165.426C260.108 165.426 260.131 165.192 260.131 165.076L260.131 122.588C264.207 124.548 268.33 126.601 272.475 128.701C279.5 132.247 286.524 136.004 293.548 139.97L302.622 155.37L306.192 156.933L345.045 174.059Z" fill="black"/>
<path d="M87.2988 347V332.6L102.699 331.4H110.899V347H87.2988ZM45.4988 347C42.8322 347 40.3655 346.333 38.0988 345C35.8322 343.667 34.0322 341.867 32.6988 339.6C31.3655 337.333 30.6988 334.867 30.6988 332.2V289.8C30.6988 287.067 31.3655 284.6 32.6988 282.4C34.0322 280.133 35.8322 278.333 38.0988 277C40.3655 275.667 42.8322 275 45.4988 275H87.8988C90.5655 275 92.9988 275.667 95.1988 277C97.4655 278.333 99.2655 280.133 100.599 282.4C101.999 284.6 102.699 287.067 102.699 289.8V332.2C102.699 334.867 101.999 337.333 100.599 339.6C99.2655 341.867 97.4655 343.667 95.1988 345C92.9988 346.333 90.5655 347 87.8988 347H45.4988ZM46.1988 331.4H86.9988V290.6H46.1988V331.4Z" fill="black"/>
<path d="M133.878 347C131.211 347 128.744 346.333 126.478 345C124.211 343.667 122.411 341.867 121.078 339.6C119.744 337.333 119.078 334.867 119.078 332.2V275H134.578V331.4H175.378V275H191.078V332.2C191.078 334.867 190.378 337.333 188.978 339.6C187.644 341.867 185.844 343.667 183.578 345C181.378 346.333 178.944 347 176.278 347H133.878Z" fill="black"/>
<path d="M216.69 347C214.024 347 211.557 346.333 209.29 345C207.024 343.667 205.224 341.867 203.89 339.6C202.557 337.333 201.89 334.867 201.89 332.2V325.5H217.39V331.4H258.19V318.8H216.69C214.024 318.8 211.557 318.133 209.29 316.8C207.024 315.467 205.224 313.7 203.89 311.5C202.557 309.233 201.89 306.733 201.89 304V289.8C201.89 287.067 202.557 284.6 203.89 282.4C205.224 280.133 207.024 278.333 209.29 277C211.557 275.667 214.024 275 216.69 275H259.09C261.757 275 264.19 275.667 266.39 277C268.657 278.333 270.457 280.133 271.79 282.4C273.19 284.6 273.89 287.067 273.89 289.8V296.5H258.19V290.6H217.39V303.2H259.09C261.757 303.2 264.19 303.867 266.39 305.2C268.657 306.533 270.457 308.333 271.79 310.6C273.19 312.8 273.89 315.267 273.89 318V332.2C273.89 334.867 273.19 337.333 271.79 339.6C270.457 341.867 268.657 343.667 266.39 345C264.19 346.333 261.757 347 259.09 347H216.69Z" fill="black"/>
<path d="M285.103 347V275H342.203C344.936 275 347.403 275.667 349.603 277C351.869 278.333 353.669 280.133 355.003 282.4C356.403 284.6 357.103 287.067 357.103 289.8V332.2C357.103 334.867 356.403 337.333 355.003 339.6C353.669 341.867 351.869 343.667 349.603 345C347.403 346.333 344.936 347 342.203 347H285.103ZM300.503 331.4H341.403V290.6H300.503V331.4Z" fill="black"/>
</svg>
