<svg width="239" height="53" viewBox="0 0 239 53.1841" fill="none" xmlns="http://www.w3.org/2000/svg">
<g id="QUSD_WORDMARK_WHITE">
<path d="M61.1978 0H24.2923C17.0208 0 11.1309 5.94506 11.1309 13.2777V39.9064C11.1309 47.239 17.0208 53.1841 24.2923 53.1841H61.1978C65.6166 53.1841 69.5208 50.9899 71.9092 47.6226C73.4586 45.451 74.3647 42.783 74.3647 39.9064V13.2777C74.3647 5.94506 68.4692 0 61.1978 0ZM61.1978 41.9031H24.2923C23.2016 41.9031 22.3178 41.0063 22.3178 39.9064V13.2777C22.3178 12.1778 23.2016 11.281 24.2923 11.281H61.1978C62.2885 11.281 63.1778 12.1778 63.1778 13.2777V39.9064C63.1778 39.9064 63.1778 39.9628 63.1722 39.991C63.1331 41.0514 62.2605 41.9031 61.1978 41.9031Z" fill="white"/>
<path d="M85.49 21.1631H0V32.0097H85.49V21.1631Z" fill="white"/>
<path d="M83.8008 42.078V53.1107L83.7281 53.1841L77.0496 50.0987C75.9588 49.5742 74.8905 49.0609 73.8501 48.5589C73.1565 48.2261 72.5077 47.9102 71.9092 47.6226C71.6071 47.4759 71.3219 47.3349 71.0422 47.1995C70.2144 46.7934 69.5152 46.4211 68.9503 46.0883L66.7465 41.6437L63.1722 39.991C63.1722 39.991 63.1778 39.9346 63.1778 39.9064V29.6351C64.1679 30.1089 65.1691 30.6052 66.1759 31.1129C67.8819 31.9702 69.5879 32.8784 71.2939 33.8372L73.4977 37.5599L74.3647 37.9379L83.8008 42.078Z" fill="white"/>
<path d="M106.466 47.2747C104.967 47.2747 103.586 46.9005 102.323 46.152C101.1 45.4034 100.114 44.4185 99.364 43.1973C98.6143 41.9366 98.2395 40.5578 98.2395 39.0607V4.72747H106.052V38.7062C106.052 38.9032 106.111 39.0804 106.229 39.238C106.387 39.3562 106.565 39.4153 106.762 39.4153H132.212C132.409 39.4153 132.587 39.3562 132.745 39.238C132.902 39.0804 132.981 38.9032 132.981 38.7062V4.72747H140.853V39.0607C140.853 40.5578 140.478 41.9366 139.728 43.1973C138.979 44.4185 137.973 45.4034 136.71 46.152C135.487 46.9005 134.126 47.2747 132.626 47.2747H106.466Z" fill="white"/>
<path d="M155.42 47.2747C153.921 47.2747 152.54 46.9005 151.277 46.152C150.054 45.4034 149.067 44.4185 148.318 43.1973C147.568 41.9366 147.193 40.5578 147.193 39.0607V35.8106H155.006V38.7062C155.006 38.9032 155.065 39.0804 155.183 39.238C155.341 39.3562 155.519 39.4153 155.716 39.4153H181.225C181.422 39.4153 181.58 39.3562 181.698 39.238C181.856 39.0804 181.935 38.9032 181.935 38.7062V30.6104C181.935 30.4134 181.856 30.2558 181.698 30.1376C181.58 30.0195 181.422 29.9604 181.225 29.9604H155.42C153.921 29.9604 152.54 29.5861 151.277 28.8376C150.054 28.0891 149.067 27.1042 148.318 25.8829C147.568 24.6223 147.193 23.2237 147.193 21.6873V12.9415C147.193 11.4444 147.568 10.0853 148.318 8.86401C149.067 7.60335 150.054 6.59876 151.277 5.85025C152.54 5.10173 153.921 4.72747 155.42 4.72747H181.58C183.079 4.72747 184.441 5.10173 185.664 5.85025C186.926 6.59876 187.933 7.60335 188.682 8.86401C189.432 10.0853 189.807 11.4444 189.807 12.9415V16.1916H181.935V13.296C181.935 13.099 181.856 12.9415 181.698 12.8233C181.58 12.6657 181.422 12.5869 181.225 12.5869H155.716C155.519 12.5869 155.341 12.6657 155.183 12.8233C155.065 12.9415 155.006 13.099 155.006 13.296V21.3918C155.006 21.5888 155.065 21.7464 155.183 21.8646C155.341 21.9827 155.519 22.0418 155.716 22.0418H181.58C183.079 22.0418 184.441 22.4161 185.664 23.1646C186.926 23.9131 187.933 24.9177 188.682 26.1784C189.432 27.3996 189.807 28.7785 189.807 30.3149V39.0607C189.807 40.5578 189.432 41.9366 188.682 43.1973C187.933 44.4185 186.926 45.4034 185.664 46.152C184.441 46.9005 183.079 47.2747 181.58 47.2747H155.42Z" fill="white"/>
<path d="M196.386 47.2747V4.72747H230.714C232.213 4.72747 233.594 5.10173 234.857 5.85025C236.12 6.59876 237.126 7.60335 237.875 8.86401C238.625 10.0853 239 11.4444 239 12.9415V39.0607C239 40.5578 238.625 41.9366 237.875 43.1973C237.126 44.4185 236.12 45.4034 234.857 46.152C233.594 46.9005 232.213 47.2747 230.714 47.2747H196.386ZM204.85 39.4153H230.359C230.556 39.4153 230.734 39.3562 230.892 39.238C231.049 39.0804 231.128 38.9032 231.128 38.7062V13.296C231.128 13.099 231.049 12.9415 230.892 12.8233C230.734 12.6657 230.556 12.5869 230.359 12.5869H204.85C204.653 12.5869 204.475 12.6657 204.317 12.8233C204.199 12.9415 204.14 13.099 204.14 13.296V38.7062C204.14 38.9032 204.199 39.0804 204.317 39.238C204.475 39.3562 204.653 39.4153 204.85 39.4153Z" fill="white"/>
</g>
</svg>
