<svg preserveAspectRatio="xMidYMid meet" width="434" height="182" viewBox="0 0 433.694 182" fill="none" xmlns="http://www.w3.org/2000/svg">
<g id="Group 9">
<g id="QUSD_WORKMARK&#38;ICON_HORIZONTAL_BLACK">
<path d="M247.584 118.856V108.923L258.207 108.096H263.863V118.856H247.584ZM218.75 118.856C216.911 118.856 215.209 118.397 213.646 117.477C212.082 116.557 210.841 115.316 209.921 113.752C209.001 112.188 208.541 110.487 208.541 108.648V79.4002C208.541 77.5147 209.001 75.8132 209.921 74.2957C210.841 72.7321 212.082 71.4905 213.646 70.5708C215.209 69.651 216.911 69.1912 218.75 69.1912H247.998C249.837 69.1912 251.516 69.651 253.033 70.5708C254.597 71.4905 255.838 72.7321 256.758 74.2957C257.724 75.8132 258.207 77.5147 258.207 79.4002V108.648C258.207 110.487 257.724 112.188 256.758 113.752C255.838 115.316 254.597 116.557 253.033 117.477C251.516 118.397 249.837 118.856 247.998 118.856H218.75ZM219.233 108.096H247.377V79.952H219.233V108.096Z" fill="var(--fill-0, #030812)"/>
<path d="M279.714 118.856C277.874 118.856 276.173 118.397 274.609 117.477C273.046 116.557 271.804 115.316 270.884 113.752C269.965 112.188 269.505 110.487 269.505 108.648V69.1912H280.197V108.096H308.34V69.1912H319.17V108.648C319.17 110.487 318.687 112.188 317.722 113.752C316.802 115.316 315.56 116.557 313.997 117.477C312.479 118.397 310.801 118.856 308.961 118.856H279.714Z" fill="var(--fill-0, #030812)"/>
<path d="M336.838 118.856C334.998 118.856 333.297 118.397 331.733 117.477C330.17 116.557 328.928 115.316 328.008 113.752C327.088 112.188 326.629 110.487 326.629 108.648V104.026H337.32V108.096H365.464V99.4042H336.838C334.998 99.4042 333.297 98.9444 331.733 98.0247C330.17 97.1049 328.928 95.8863 328.008 94.3687C327.088 92.8052 326.629 91.0807 326.629 89.1953V79.4002C326.629 77.5147 327.088 75.8132 328.008 74.2957C328.928 72.7321 330.17 71.4905 331.733 70.5708C333.297 69.651 334.998 69.1912 336.838 69.1912H366.085C367.924 69.1912 369.603 69.651 371.12 70.5708C372.684 71.4905 373.926 72.7321 374.845 74.2957C375.811 75.8132 376.294 77.5147 376.294 79.4002V84.0218H365.464V79.952H337.32V88.6434H366.085C367.924 88.6434 369.603 89.1033 371.12 90.023C372.684 90.9427 373.926 92.1844 374.845 93.7479C375.811 95.2655 376.294 96.967 376.294 98.8524V108.648C376.294 110.487 375.811 112.188 374.845 113.752C373.926 115.316 372.684 116.557 371.12 117.477C369.603 118.397 367.924 118.856 366.085 118.856H336.838Z" fill="var(--fill-0, #030812)"/>
<path d="M384.028 118.856V69.1912H423.416C425.301 69.1912 427.003 69.651 428.52 70.5708C430.084 71.4905 431.325 72.7321 432.245 74.2957C433.211 75.8132 433.694 77.5147 433.694 79.4002V108.648C433.694 110.487 433.211 112.188 432.245 113.752C431.325 115.316 430.084 116.557 428.52 117.477C427.003 118.397 425.301 118.856 423.416 118.856H384.028ZM394.651 108.096H422.864V79.952H394.651V108.096Z" fill="var(--fill-0, #030812)"/>
</g>
<g id="Group 1">
<circle id="Ellipse 1" cx="91" cy="91" r="91" fill="var(--fill-0, #0ECCED)"/>
<g id="QUSD_WORKMARK&#38;ICON_HORIZONTAL_BLACK_2">
<path d="M112.049 57.3056H66.2364C57.21 57.3056 49.8986 64.779 49.8986 73.9968V107.471C49.8986 116.689 57.21 124.163 66.2364 124.163H112.049C117.534 124.163 122.38 121.404 125.345 117.171C127.269 114.442 128.393 111.088 128.393 107.471V73.9968C128.393 64.779 121.075 57.3056 112.049 57.3056ZM112.049 109.982H66.2364C64.8824 109.982 63.7853 108.854 63.7853 107.471V73.9968C63.7853 72.6141 64.8824 71.4867 66.2364 71.4867H112.049C113.403 71.4867 114.507 72.6141 114.507 73.9968V107.471C114.507 107.471 114.507 107.542 114.5 107.578C114.451 108.911 113.368 109.982 112.049 109.982Z" fill="var(--fill-0, #FFF5E2)"/>
<path d="M142.204 83.9094H36.0813V97.5446H142.204V83.9094Z" fill="var(--fill-0, #FFF5E2)"/>
<path d="M140.107 110.201V124.071L140.017 124.163L131.726 120.284C130.372 119.625 129.046 118.979 127.755 118.348C126.894 117.93 126.088 117.533 125.345 117.171C124.97 116.987 124.616 116.81 124.269 116.64C123.241 116.129 122.373 115.661 121.672 115.243L118.937 109.655L114.5 107.578C114.5 107.578 114.507 107.507 114.507 107.471L114.507 94.5595C115.736 95.1551 116.978 95.7791 118.228 96.4172C120.346 97.495 122.464 98.6366 124.581 99.842L127.317 104.522L128.393 104.997L140.107 110.201Z" fill="var(--fill-0, #FFF5E2)"/>
</g>
</g>
</g>
</svg>
