<svg preserveAspectRatio="none" width="100%" height="100%" overflow="visible" style="display: block;" viewBox="0 0 364 81" fill="none" xmlns="http://www.w3.org/2000/svg">
<g id="QUSD_WORDMARK_WHITE">
<path d="M93.205 0H36.9975C25.9229 0 16.9526 9.05441 16.9526 20.2221V60.7779C16.9526 71.9456 25.9229 81 36.9975 81H93.205C99.9349 81 105.881 77.6583 109.519 72.5297C111.878 69.2224 113.258 65.1591 113.258 60.7779V20.2221C113.258 9.05441 104.28 0 93.205 0ZM93.205 63.819H36.9975C35.3363 63.819 33.9903 62.4531 33.9903 60.7779V20.2221C33.9903 18.5469 35.3363 17.181 36.9975 17.181H93.205C94.8661 17.181 96.2206 18.5469 96.2206 20.2221V60.7779C96.2206 60.7779 96.2206 60.8638 96.2121 60.9068C96.1525 62.5218 94.8236 63.819 93.205 63.819Z" fill="var(--fill-0, white)"/>
<path d="M130.202 32.2316H0V48.7512H130.202V32.2316Z" fill="var(--fill-0, white)"/>
<path d="M127.63 64.0853V80.8883L127.519 81L117.347 76.301C115.686 75.5021 114.059 74.7203 112.475 73.9558C111.418 73.4489 110.43 72.9679 109.519 72.5297C109.059 72.3064 108.624 72.0916 108.198 71.8855C106.937 71.267 105.873 70.7 105.012 70.1931L101.656 63.4238L96.2121 60.9068C96.2121 60.9068 96.2206 60.8209 96.2206 60.7779V45.1346C97.7285 45.8562 99.2534 46.6122 100.787 47.3853C103.385 48.6911 105.983 50.0741 108.582 51.5345L111.938 57.2043L113.258 57.7798L127.63 64.0853Z" fill="var(--fill-0, white)"/>
<path d="M162.149 72C159.866 72 157.763 71.43 155.84 70.29C153.977 69.15 152.474 67.65 151.333 65.79C150.191 63.87 149.62 61.77 149.62 59.49V7.2H161.518V58.95C161.518 59.25 161.609 59.52 161.789 59.76C162.029 59.94 162.3 60.03 162.6 60.03H201.36C201.661 60.03 201.931 59.94 202.172 59.76C202.412 59.52 202.532 59.25 202.532 58.95V7.2H214.521V59.49C214.521 61.77 213.95 63.87 212.808 65.79C211.666 67.65 210.134 69.15 208.211 70.29C206.348 71.43 204.275 72 201.991 72H162.149Z" fill="var(--fill-0, white)"/>
<path d="M236.707 72C234.423 72 232.32 71.43 230.397 70.29C228.534 69.15 227.032 67.65 225.89 65.79C224.748 63.87 224.177 61.77 224.177 59.49V54.54H236.076V58.95C236.076 59.25 236.166 59.52 236.346 59.76C236.586 59.94 236.857 60.03 237.157 60.03H276.008C276.308 60.03 276.549 59.94 276.729 59.76C276.969 59.52 277.089 59.25 277.089 58.95V46.62C277.089 46.32 276.969 46.08 276.729 45.9C276.549 45.72 276.308 45.63 276.008 45.63H236.707C234.423 45.63 232.32 45.06 230.397 43.92C228.534 42.78 227.032 41.28 225.89 39.42C224.748 37.5 224.177 35.37 224.177 33.03V19.71C224.177 17.43 224.748 15.36 225.89 13.5C227.032 11.58 228.534 10.05 230.397 8.91C232.32 7.77 234.423 7.2 236.707 7.2H276.549C278.832 7.2 280.905 7.77 282.768 8.91C284.691 10.05 286.224 11.58 287.365 13.5C288.507 15.36 289.078 17.43 289.078 19.71V24.66H277.089V20.25C277.089 19.95 276.969 19.71 276.729 19.53C276.549 19.29 276.308 19.17 276.008 19.17H237.157C236.857 19.17 236.586 19.29 236.346 19.53C236.166 19.71 236.076 19.95 236.076 20.25V32.58C236.076 32.88 236.166 33.12 236.346 33.3C236.586 33.48 236.857 33.57 237.157 33.57H276.549C278.832 33.57 280.905 34.14 282.768 35.28C284.691 36.42 286.224 37.95 287.365 39.87C288.507 41.73 289.078 43.83 289.078 46.17V59.49C289.078 61.77 288.507 63.87 287.365 65.79C286.224 67.65 284.691 69.15 282.768 70.29C280.905 71.43 278.832 72 276.549 72H236.707Z" fill="var(--fill-0, white)"/>
<path d="M299.099 72V7.2H351.38C353.664 7.2 355.767 7.77 357.69 8.91C359.613 10.05 361.146 11.58 362.287 13.5C363.429 15.36 364 17.43 364 19.71V59.49C364 61.77 363.429 63.87 362.287 65.79C361.146 67.65 359.613 69.15 357.69 70.29C355.767 71.43 353.664 72 351.38 72H299.099ZM311.989 60.03H350.84C351.14 60.03 351.41 59.94 351.651 59.76C351.891 59.52 352.011 59.25 352.011 58.95V20.25C352.011 19.95 351.891 19.71 351.651 19.53C351.41 19.29 351.14 19.17 350.84 19.17H311.989C311.689 19.17 311.418 19.29 311.178 19.53C310.998 19.71 310.907 19.95 310.907 20.25V58.95C310.907 59.25 310.998 59.52 311.178 59.76C311.418 59.94 311.689 60.03 311.989 60.03Z" fill="var(--fill-0, white)"/>
</g>
</svg>
