<svg preserveAspectRatio="none" width="100%" height="100%" overflow="visible" style="display: block;" viewBox="0 0 1008.66 423.284" fill="none" xmlns="http://www.w3.org/2000/svg">
<g id="Group 2">
<g id="QUSD_WORKMARK&#38;ICON_HORIZONTAL_BLACK">
<path d="M575.814 276.43V253.328L600.52 251.403H613.675V276.43H575.814ZM508.755 276.43C504.477 276.43 500.519 275.36 496.883 273.221C493.247 271.082 490.359 268.195 488.22 264.558C486.081 260.922 485.011 256.965 485.011 252.687V184.665C485.011 180.28 486.081 176.323 488.22 172.793C490.359 169.157 493.247 166.269 496.883 164.13C500.519 161.991 504.477 160.922 508.755 160.922H576.776C581.054 160.922 584.958 161.991 588.487 164.13C592.124 166.269 595.012 169.157 597.151 172.793C599.397 176.323 600.52 180.28 600.52 184.665V252.687C600.52 256.965 599.397 260.922 597.151 264.558C595.012 268.195 592.124 271.082 588.487 273.221C584.958 275.36 581.054 276.43 576.776 276.43H508.755ZM509.878 251.403H575.332V185.948H509.878V251.403Z" fill="var(--fill-0, #FFF5E2)"/>
<path d="M650.539 276.43C646.261 276.43 642.304 275.36 638.668 273.221C635.031 271.082 632.143 268.195 630.004 264.558C627.865 260.922 626.796 256.965 626.796 252.687V160.922H651.662V251.403H717.117V160.922H742.304V252.687C742.304 256.965 741.181 260.922 738.935 264.558C736.796 268.195 733.908 271.082 730.272 273.221C726.743 275.36 722.839 276.43 718.561 276.43H650.539Z" fill="var(--fill-0, #FFF5E2)"/>
<path d="M783.394 276.43C779.116 276.43 775.158 275.36 771.522 273.221C767.886 271.082 764.998 268.195 762.859 264.558C760.72 260.922 759.65 256.965 759.65 252.687V241.938H784.517V251.403H849.971V231.189H783.394C779.116 231.189 775.158 230.12 771.522 227.981C767.886 225.842 764.998 223.007 762.859 219.478C760.72 215.842 759.65 211.831 759.65 207.446V184.665C759.65 180.28 760.72 176.323 762.859 172.793C764.998 169.157 767.886 166.269 771.522 164.13C775.158 161.991 779.116 160.922 783.394 160.922H851.415C855.693 160.922 859.597 161.991 863.127 164.13C866.763 166.269 869.651 169.157 871.79 172.793C874.036 176.323 875.159 180.28 875.159 184.665V195.414H849.971V185.948H784.517V206.162H851.415C855.693 206.162 859.597 207.232 863.127 209.371C866.763 211.51 869.651 214.398 871.79 218.034C874.036 221.563 875.159 225.521 875.159 229.906V252.687C875.159 256.965 874.036 260.922 871.79 264.558C869.651 268.195 866.763 271.082 863.127 273.221C859.597 275.36 855.693 276.43 851.415 276.43H783.394Z" fill="var(--fill-0, #FFF5E2)"/>
<path d="M893.147 276.43V160.922H984.751C989.136 160.922 993.093 161.991 996.623 164.13C1000.26 166.269 1003.15 169.157 1005.29 172.793C1007.53 176.323 1008.65 180.28 1008.65 184.665V252.687C1008.65 256.965 1007.53 260.922 1005.29 264.558C1003.15 268.195 1000.26 271.082 996.623 273.221C993.093 275.36 989.136 276.43 984.751 276.43H893.147ZM917.853 251.403H983.468V185.948H917.853V251.403Z" fill="var(--fill-0, #FFF5E2)"/>
</g>
<g id="Group 1">
<circle id="Ellipse 1" cx="211.642" cy="211.642" r="211.642" fill="var(--fill-0, #FFF5E2)"/>
<g id="QUSD_WORKMARK&#38;ICON_HORIZONTAL_BLACK_2">
<path d="M260.596 133.279H154.049C133.056 133.279 116.051 150.66 116.051 172.098V249.951C116.051 271.389 133.056 288.77 154.049 288.77H260.596C273.353 288.77 284.625 282.356 291.52 272.511C295.993 266.162 298.609 258.361 298.609 249.951V172.098C298.609 150.66 281.589 133.279 260.596 133.279ZM260.596 255.789H154.049C150.9 255.789 148.348 253.167 148.348 249.951V172.098C148.348 168.882 150.9 166.26 154.049 166.26H260.596C263.745 166.26 266.313 168.882 266.313 172.098V249.951C266.313 249.951 266.313 250.116 266.296 250.198C266.183 253.299 263.664 255.789 260.596 255.789Z" fill="var(--fill-0, #025EC4)"/>
<path d="M330.729 195.152H83.9161V226.864H330.729V195.152Z" fill="var(--fill-0, #025EC4)"/>
<path d="M325.852 256.3V288.556L325.642 288.771L306.361 279.75C303.212 278.216 300.127 276.716 297.124 275.248C295.121 274.275 293.248 273.352 291.52 272.511C290.648 272.082 289.825 271.67 289.017 271.274C286.627 270.086 284.609 268.998 282.978 268.025L276.615 255.03L266.296 250.198C266.296 250.198 266.313 250.034 266.313 249.951L266.313 219.921C269.171 221.307 272.061 222.758 274.968 224.242C279.893 226.749 284.819 229.404 289.744 232.207L296.106 243.091L298.609 244.196L325.852 256.3Z" fill="var(--fill-0, #025EC4)"/>
</g>
</g>
</g>
</svg>
