<svg preserveAspectRatio="none" width="100%" height="100%" overflow="visible" style="display: block;" viewBox="0 0 433.693 182" fill="none" xmlns="http://www.w3.org/2000/svg">
<g id="Group 3">
<g id="QUSD_WORKMARK&#38;ICON_HORIZONTAL_BLACK">
<path d="M247.584 118.857V108.924L258.207 108.096H263.863V118.857H247.584ZM218.75 118.857C216.911 118.857 215.209 118.397 213.646 117.477C212.082 116.557 210.841 115.316 209.921 113.752C209.001 112.189 208.541 110.487 208.541 108.648V79.4004C208.541 77.5149 209.001 75.8134 209.921 74.2959C210.841 72.7324 212.082 71.4907 213.646 70.571C215.209 69.6513 216.911 69.1914 218.75 69.1914H247.998C249.837 69.1914 251.516 69.6513 253.033 70.571C254.597 71.4907 255.838 72.7324 256.758 74.2959C257.724 75.8134 258.207 77.5149 258.207 79.4004V108.648C258.207 110.487 257.724 112.189 256.758 113.752C255.838 115.316 254.597 116.557 253.033 117.477C251.516 118.397 249.837 118.857 247.998 118.857H218.75ZM219.233 108.096H247.377V79.9522H219.233V108.096Z" fill="var(--fill-0, #030812)"/>
<path d="M279.714 118.857C277.874 118.857 276.173 118.397 274.609 117.477C273.046 116.557 271.804 115.316 270.884 113.752C269.965 112.189 269.505 110.487 269.505 108.648V69.1914H280.197V108.096H308.34V69.1914H319.17V108.648C319.17 110.487 318.687 112.189 317.721 113.752C316.802 115.316 315.56 116.557 313.997 117.477C312.479 118.397 310.8 118.857 308.961 118.857H279.714Z" fill="var(--fill-0, #030812)"/>
<path d="M336.837 118.857C334.998 118.857 333.296 118.397 331.733 117.477C330.169 116.557 328.928 115.316 328.008 113.752C327.088 112.189 326.628 110.487 326.628 108.648V104.026H337.32V108.096H365.464V99.4045H336.837C334.998 99.4045 333.296 98.9446 331.733 98.0249C330.169 97.1051 328.928 95.8865 328.008 94.369C327.088 92.8054 326.628 91.0809 326.628 89.1955V79.4004C326.628 77.5149 327.088 75.8134 328.008 74.2959C328.928 72.7324 330.169 71.4907 331.733 70.571C333.296 69.6513 334.998 69.1914 336.837 69.1914H366.085C367.924 69.1914 369.603 69.6513 371.12 70.571C372.684 71.4907 373.925 72.7324 374.845 74.2959C375.811 75.8134 376.294 77.5149 376.294 79.4004V84.022H365.464V79.9522H337.32V88.6437H366.085C367.924 88.6437 369.603 89.1035 371.12 90.0232C372.684 90.943 373.925 92.1846 374.845 93.7481C375.811 95.2657 376.294 96.9672 376.294 98.8526V108.648C376.294 110.487 375.811 112.189 374.845 113.752C373.925 115.316 372.684 116.557 371.12 117.477C369.603 118.397 367.924 118.857 366.085 118.857H336.837Z" fill="var(--fill-0, #030812)"/>
<path d="M384.028 118.857V69.1914H423.415C425.301 69.1914 427.002 69.6513 428.52 70.571C430.083 71.4907 431.325 72.7324 432.245 74.2959C433.211 75.8134 433.693 77.5149 433.693 79.4004V108.648C433.693 110.487 433.211 112.189 432.245 113.752C431.325 115.316 430.083 116.557 428.52 117.477C427.002 118.397 425.301 118.857 423.415 118.857H384.028ZM394.651 108.096H422.864V79.9522H394.651V108.096Z" fill="var(--fill-0, #030812)"/>
</g>
<g id="Group 1">
<circle id="Ellipse 1" cx="91.0001" cy="91" r="91" fill="var(--fill-0, #0ECCED)"/>
<g id="QUSD_WORKMARK&#38;ICON_HORIZONTAL_BLACK_2">
<path d="M112.049 57.3055H66.2364C57.21 57.3055 49.8987 64.779 49.8987 73.9968V107.471C49.8987 116.689 57.21 124.163 66.2364 124.163H112.049C117.534 124.163 122.38 121.404 125.345 117.171C127.269 114.441 128.393 111.088 128.393 107.471V73.9968C128.393 64.779 121.075 57.3055 112.049 57.3055ZM112.049 109.981H66.2364C64.8825 109.981 63.7854 108.854 63.7854 107.471V73.9968C63.7854 72.6141 64.8825 71.4867 66.2364 71.4867H112.049C113.403 71.4867 114.507 72.6141 114.507 73.9968V107.471C114.507 107.471 114.507 107.542 114.5 107.578C114.451 108.911 113.368 109.981 112.049 109.981Z" fill="var(--fill-0, #FFF5E2)"/>
<path d="M142.204 83.9094H36.0814V97.5446H142.204V83.9094Z" fill="var(--fill-0, #FFF5E2)"/>
<path d="M140.107 110.201V124.07L140.017 124.163L131.726 120.284C130.372 119.625 129.046 118.979 127.755 118.348C126.894 117.93 126.088 117.533 125.345 117.171C124.97 116.987 124.616 116.81 124.269 116.64C123.241 116.129 122.374 115.661 121.672 115.243L118.937 109.655L114.5 107.578C114.5 107.578 114.507 107.507 114.507 107.471L114.507 94.5595C115.736 95.1551 116.979 95.779 118.228 96.4172C120.346 97.495 122.464 98.6366 124.582 99.842L127.317 104.522L128.393 104.997L140.107 110.201Z" fill="var(--fill-0, #FFF5E2)"/>
</g>
</g>
</g>
</svg>
