<svg width="509" height="114" viewBox="0 0 509 114" fill="none" xmlns="http://www.w3.org/2000/svg">
<path d="M130.333 0H51.7355C36.2494 0 23.7056 12.7432 23.7056 28.4607V85.5393C23.7056 101.257 36.2494 114 51.7355 114H130.333C139.744 114 148.059 109.297 153.146 102.079C156.445 97.4241 158.375 91.7054 158.375 85.5393V28.4607C158.375 12.7432 145.819 0 130.333 0ZM130.333 89.8193H51.7355C49.4125 89.8193 47.5304 87.8969 47.5304 85.5393V28.4607C47.5304 26.1031 49.4125 24.1807 51.7355 24.1807H130.333C132.656 24.1807 134.55 26.1031 134.55 28.4607V85.5393C134.55 85.5393 134.55 85.6602 134.538 85.7206C134.455 87.9936 132.597 89.8193 130.333 89.8193Z" fill="#0ECCED"/>
<path d="M182.069 45.363H0V68.6128H182.069V45.363Z" fill="#0ECCED"/>
<path d="M178.471 90.1941V113.843L178.316 114L164.093 107.387C161.77 106.262 159.495 105.162 157.279 104.086C155.802 103.373 154.42 102.696 153.146 102.079C152.502 101.765 151.895 101.462 151.299 101.172C149.536 100.302 148.047 99.5037 146.844 98.7903L142.15 89.2631L134.538 85.7206C134.538 85.7206 134.55 85.5997 134.55 85.5393V63.5228C136.659 64.5383 138.791 65.6023 140.935 66.6904C144.569 68.5282 148.202 70.4747 151.835 72.5301L156.529 80.5097L158.375 81.3198L178.471 90.1941Z" fill="#0ECCED"/>
<path d="M226.742 101.333C223.549 101.333 220.608 100.531 217.919 98.9267C215.314 97.3222 213.213 95.2111 211.616 92.5933C210.02 89.8911 209.221 86.9356 209.221 83.7267V10.1333H225.86V82.9667C225.86 83.3889 225.986 83.7689 226.238 84.1067C226.574 84.36 226.952 84.4867 227.372 84.4867H281.573C281.993 84.4867 282.371 84.36 282.707 84.1067C283.043 83.7689 283.211 83.3889 283.211 82.9667V10.1333H299.976V83.7267C299.976 86.9356 299.177 89.8911 297.581 92.5933C295.984 95.2111 293.841 97.3222 291.152 98.9267C288.547 100.531 285.648 101.333 282.455 101.333H226.742Z" fill="#0ECCED"/>
<path d="M330.999 101.333C327.806 101.333 324.865 100.531 322.176 98.9267C319.571 97.3222 317.47 95.2111 315.873 92.5933C314.277 89.8911 313.478 86.9356 313.478 83.7267V76.76H330.117V82.9667C330.117 83.3889 330.243 83.7689 330.495 84.1067C330.831 84.36 331.209 84.4867 331.629 84.4867H385.956C386.376 84.4867 386.712 84.36 386.964 84.1067C387.3 83.7689 387.468 83.3889 387.468 82.9667V65.6133C387.468 65.1911 387.3 64.8533 386.964 64.6C386.712 64.3467 386.376 64.22 385.956 64.22H330.999C327.806 64.22 324.865 63.4178 322.176 61.8133C319.571 60.2089 317.47 58.0978 315.873 55.48C314.277 52.7778 313.478 49.78 313.478 46.4867V27.74C313.478 24.5311 314.277 21.6178 315.873 19C317.47 16.2978 319.571 14.1444 322.176 12.54C324.865 10.9356 327.806 10.1333 330.999 10.1333H386.712C389.905 10.1333 392.804 10.9356 395.409 12.54C398.098 14.1444 400.241 16.2978 401.838 19C403.434 21.6178 404.233 24.5311 404.233 27.74V34.7067H387.468V28.5C387.468 28.0778 387.3 27.74 386.964 27.4867C386.712 27.1489 386.376 26.98 385.956 26.98H331.629C331.209 26.98 330.831 27.1489 330.495 27.4867C330.243 27.74 330.117 28.0778 330.117 28.5V45.8533C330.117 46.2756 330.243 46.6133 330.495 46.8667C330.831 47.12 331.209 47.2467 331.629 47.2467H386.712C389.905 47.2467 392.804 48.0489 395.409 49.6533C398.098 51.2578 400.241 53.4111 401.838 56.1133C403.434 58.7311 404.233 61.6867 404.233 64.98V83.7267C404.233 86.9356 403.434 89.8911 401.838 92.5933C400.241 95.2111 398.098 97.3222 395.409 98.9267C392.804 100.531 389.905 101.333 386.712 101.333H330.999Z" fill="#0ECCED"/>
<path d="M418.246 101.333V10.1333H491.353C494.547 10.1333 497.488 10.9356 500.177 12.54C502.866 14.1444 505.008 16.2978 506.605 19C508.202 21.6178 509 24.5311 509 27.74V83.7267C509 86.9356 508.202 89.8911 506.605 92.5933C505.008 95.2111 502.866 97.3222 500.177 98.9267C497.488 100.531 494.547 101.333 491.353 101.333H418.246ZM436.27 84.4867H490.597C491.017 84.4867 491.395 84.36 491.731 84.1067C492.068 83.7689 492.236 83.3889 492.236 82.9667V28.5C492.236 28.0778 492.068 27.74 491.731 27.4867C491.395 27.1489 491.017 26.98 490.597 26.98H436.27C435.85 26.98 435.472 27.1489 435.136 27.4867C434.884 27.74 434.758 28.0778 434.758 28.5V82.9667C434.758 83.3889 434.884 83.7689 435.136 84.1067C435.472 84.36 435.85 84.4867 436.27 84.4867Z" fill="#0ECCED"/>
</svg>
