<svg width="509" height="114" viewBox="0 0 509 114" fill="none" xmlns="http://www.w3.org/2000/svg">
<path d="M130.302 0H51.7229C36.2406 0 23.6999 12.7432 23.6999 28.4607V85.5393C23.6999 101.257 36.2406 114 51.7229 114H130.302C139.71 114 148.023 109.297 153.109 102.079C156.407 97.4241 158.337 91.7054 158.337 85.5393V28.4607C158.337 12.7432 145.784 0 130.302 0ZM130.302 89.8193H51.7229C49.4006 89.8193 47.5189 87.8969 47.5189 85.5393V28.4607C47.5189 26.1031 49.4006 24.1807 51.7229 24.1807H130.302C132.624 24.1807 134.518 26.1031 134.518 28.4607V85.5393C134.518 85.5393 134.518 85.6602 134.506 85.7206C134.423 87.9936 132.565 89.8193 130.302 89.8193Z" fill="#020764"/>
<path d="M182.025 45.363H0V68.6128H182.025V45.363Z" fill="#020764"/>
<path d="M178.428 90.1941V113.843L178.273 114L164.053 107.387C161.731 106.262 159.456 105.162 157.241 104.086C155.764 103.373 154.383 102.696 153.109 102.079C152.465 101.765 151.858 101.462 151.263 101.172C149.5 100.302 148.011 99.5037 146.808 98.7903L142.116 89.2631L134.506 85.7206C134.506 85.7206 134.518 85.5997 134.518 85.5393V63.5228C136.626 64.5383 138.758 65.6023 140.901 66.6904C144.534 68.5282 148.166 70.4747 151.798 72.5301L156.491 80.5097L158.337 81.3198L178.428 90.1941Z" fill="#020764"/>
<path d="M418.268 101.333V10.1333H490.223C493.668 10.1333 496.776 10.9778 499.549 12.6667C502.405 14.3556 504.673 16.6356 506.354 19.5067C508.118 22.2933 509 25.4178 509 28.88V82.5867C509 85.9644 508.118 89.0889 506.354 91.96C504.673 94.8311 502.405 97.1111 499.549 98.8C496.776 100.489 493.668 101.333 490.223 101.333H418.268ZM437.674 81.5733H489.215V29.8933H437.674V81.5733Z" fill="#020764"/>
<path d="M332.056 101.333C328.696 101.333 325.587 100.489 322.731 98.8C319.874 97.1111 317.606 94.8311 315.926 91.96C314.246 89.0889 313.406 85.9644 313.406 82.5867V74.1H332.938V81.5733H384.353V65.6133H332.056C328.696 65.6133 325.587 64.7689 322.731 63.08C319.874 61.3911 317.606 59.1533 315.926 56.3667C314.246 53.4956 313.406 50.3289 313.406 46.8667V28.88C313.406 25.4178 314.246 22.2933 315.926 19.5067C317.606 16.6356 319.874 14.3556 322.731 12.6667C325.587 10.9778 328.696 10.1333 332.056 10.1333H385.487C388.848 10.1333 391.914 10.9778 394.687 12.6667C397.543 14.3556 399.811 16.6356 401.492 19.5067C403.256 22.2933 404.138 25.4178 404.138 28.88V37.3667H384.353V29.8933H332.938V45.8533H385.487C388.848 45.8533 391.914 46.6978 394.687 48.3867C397.543 50.0756 399.811 52.3556 401.492 55.2267C403.256 58.0133 404.138 61.1378 404.138 64.6V82.5867C404.138 85.9644 403.256 89.0889 401.492 91.96C399.811 94.8311 397.543 97.1111 394.687 98.8C391.914 100.489 388.848 101.333 385.487 101.333H332.056Z" fill="#020764"/>
<path d="M227.698 101.333C224.338 101.333 221.229 100.489 218.373 98.8C215.517 97.1111 213.248 94.8311 211.568 91.96C209.888 89.0889 209.048 85.9644 209.048 82.5867V10.1333H228.58V81.5733H279.995V10.1333H299.78V82.5867C299.78 85.9644 298.898 89.0889 297.134 91.96C295.453 94.8311 293.185 97.1111 290.329 98.8C287.556 100.489 284.49 101.333 281.129 101.333H227.698Z" fill="#020764"/>
</svg>
