<svg width="250" height="243" viewBox="0 0 250 243" fill="none" xmlns="http://www.w3.org/2000/svg">
<path d="M176.404 0H70.0232C49.063 0 32.0853 17.2216 32.0853 38.4627V115.601C32.0853 136.842 49.063 154.063 70.0232 154.063H176.404C189.142 154.063 200.396 147.707 207.28 137.953C211.747 131.662 214.359 123.934 214.359 115.601V38.4627C214.359 17.2216 197.365 0 176.404 0ZM176.404 121.385H70.0232C66.8792 121.385 64.3317 118.787 64.3317 115.601V38.4627C64.3317 35.2766 66.8792 32.6786 70.0232 32.6786H176.404C179.548 32.6786 182.112 35.2766 182.112 38.4627V115.601C182.112 115.601 182.112 115.764 182.096 115.846C181.983 118.918 179.468 121.385 176.404 121.385Z" fill="#043780"/>
<path d="M246.428 61.3051H0V92.7256H246.428V61.3051Z" fill="#043780"/>
<path d="M241.558 121.891V153.851L241.349 154.063L222.098 145.126C218.954 143.606 215.874 142.119 212.875 140.665C210.876 139.701 209.006 138.786 207.28 137.953C206.41 137.528 205.587 137.12 204.781 136.727C202.395 135.551 200.38 134.473 198.751 133.509L192.399 120.633L182.096 115.846C182.096 115.846 182.112 115.682 182.112 115.601L182.112 85.8468C184.966 87.2193 187.852 88.6571 190.754 90.1277C195.672 92.6113 200.589 95.2419 205.507 98.0196L211.859 108.804L214.359 109.898L241.558 121.891Z" fill="#043780"/>
<path d="M61.116 243V232.916L71.8973 232.076H77.6379V243H61.116ZM31.8528 243C29.9859 243 28.259 242.533 26.6722 241.599C25.0853 240.666 23.8252 239.405 22.8918 237.818C21.9583 236.231 21.4916 234.503 21.4916 232.636V202.944C21.4916 201.029 21.9583 199.302 22.8918 197.761C23.8252 196.174 25.0853 194.914 26.6722 193.98C28.259 193.046 29.9859 192.579 31.8528 192.579H61.5361C63.403 192.579 65.1065 193.046 66.6467 193.98C68.2335 194.914 69.4937 196.174 70.4271 197.761C71.4072 199.302 71.8973 201.029 71.8973 202.944V232.636C71.8973 234.503 71.4072 236.231 70.4271 237.818C69.4937 239.405 68.2335 240.666 66.6467 241.599C65.1065 242.533 63.403 243 61.5361 243H31.8528ZM32.3428 232.076H60.906V203.504H32.3428V232.076Z" fill="#043780"/>
<path d="M93.7249 243C91.8581 243 90.1312 242.533 88.5444 241.599C86.9575 240.666 85.6974 239.405 84.7639 237.818C83.8305 236.231 83.3638 234.503 83.3638 232.636V192.579H94.215V232.076H122.778V192.579H133.769V232.636C133.769 234.503 133.279 236.231 132.299 237.818C131.366 239.405 130.106 240.666 128.519 241.599C126.979 242.533 125.275 243 123.408 243H93.7249Z" fill="#043780"/>
<path d="M151.7 243C149.833 243 148.106 242.533 146.52 241.599C144.933 240.666 143.673 239.405 142.739 237.818C141.806 236.231 141.339 234.503 141.339 232.636V227.944H152.19V232.076H180.753V223.252H151.7C149.833 223.252 148.106 222.785 146.52 221.851C144.933 220.918 143.673 219.68 142.739 218.14C141.806 216.552 141.339 214.802 141.339 212.888V202.944C141.339 201.029 141.806 199.302 142.739 197.761C143.673 196.174 144.933 194.914 146.52 193.98C148.106 193.046 149.833 192.579 151.7 192.579H181.384C183.25 192.579 184.954 193.046 186.494 193.98C188.081 194.914 189.341 196.174 190.275 197.761C191.255 199.302 191.745 201.029 191.745 202.944V207.635H180.753V203.504H152.19V212.327H181.384C183.25 212.327 184.954 212.794 186.494 213.728C188.081 214.662 189.341 215.922 190.275 217.51C191.255 219.05 191.745 220.778 191.745 222.692V232.636C191.745 234.503 191.255 236.231 190.275 237.818C189.341 239.405 188.081 240.666 186.494 241.599C184.954 242.533 183.25 243 181.384 243H151.7Z" fill="#043780"/>
<path d="M199.594 243V192.579H239.569C241.482 192.579 243.209 193.046 244.749 193.98C246.336 194.914 247.596 196.174 248.53 197.761C249.51 199.302 250 201.029 250 202.944V232.636C250 234.503 249.51 236.231 248.53 237.818C247.596 239.405 246.336 240.666 244.749 241.599C243.209 242.533 241.482 243 239.569 243H199.594ZM210.376 232.076H239.009V203.504H210.376V232.076Z" fill="#043780"/>
</svg>
