<svg width="597" height="154" viewBox="0 0 597 154" fill="none" xmlns="http://www.w3.org/2000/svg">
<path d="M176.336 0H69.9962C49.0441 0 32.0728 17.2146 32.0728 38.4469V115.553C32.0728 136.785 49.0441 154 69.9962 154H176.336C189.069 154 200.318 147.647 207.2 137.896C211.665 131.608 214.276 123.883 214.276 115.553V38.4469C214.276 17.2146 197.288 0 176.336 0ZM176.336 121.335H69.9962C66.8534 121.335 64.3069 118.738 64.3069 115.553V38.4469C64.3069 35.2621 66.8534 32.6652 69.9962 32.6652H176.336C179.479 32.6652 182.042 35.2621 182.042 38.4469V115.553C182.042 115.553 182.042 115.716 182.026 115.798C181.913 118.869 179.398 121.335 176.336 121.335Z" fill="#0ECCED"/>
<path d="M246.332 61.2799H0V92.6874H246.332V61.2799Z" fill="#0ECCED"/>
<path d="M241.465 121.841V153.788L241.256 154L222.012 145.066C218.869 143.547 215.791 142.061 212.793 140.607C210.794 139.644 208.925 138.729 207.2 137.896C206.33 137.471 205.508 137.063 204.702 136.671C202.317 135.495 200.302 134.417 198.674 133.454L192.324 120.584L182.026 115.798C182.026 115.798 182.042 115.635 182.042 115.553L182.042 85.8114C184.894 87.1834 187.779 88.6206 190.68 90.0906C195.596 92.5731 200.512 95.2027 205.427 97.9792L211.777 108.759L214.276 109.853L241.465 121.841Z" fill="#0ECCED"/>
<path d="M352.451 110.6V100.59L365.734 97.314V98.497H373.557V110.6H352.451ZM312.877 110.6C310.572 110.6 308.45 110.024 306.509 108.871C304.629 107.718 303.112 106.202 301.96 104.321C300.808 102.38 300.232 100.256 300.232 97.951V57.729C300.232 55.4237 300.808 53.3307 301.96 51.45C303.112 49.5087 304.629 47.9617 306.509 46.809C308.45 45.6563 310.572 45.08 312.877 45.08H353.088C355.393 45.08 357.485 45.6563 359.365 46.809C361.306 47.9617 362.853 49.5087 364.005 51.45C365.157 53.3307 365.734 55.4237 365.734 57.729V97.951C365.734 100.256 365.157 102.38 364.005 104.321C362.853 106.202 361.306 107.718 359.365 108.871C357.485 110.024 355.393 110.6 353.088 110.6H312.877ZM313.332 98.497H352.451C352.755 98.497 353.027 98.406 353.27 98.224C353.513 97.9813 353.634 97.7083 353.634 97.405V58.275C353.634 57.9717 353.513 57.729 353.27 57.547C353.027 57.3043 352.755 57.183 352.451 57.183H313.332C313.029 57.183 312.756 57.3043 312.513 57.547C312.331 57.729 312.24 57.9717 312.24 58.275V97.405C312.24 97.7083 312.331 97.9813 312.513 98.224C312.756 98.406 313.029 98.497 313.332 98.497Z" fill="#0ECCED"/>
<path d="M393.28 110.6C390.975 110.6 388.852 110.024 386.912 108.871C385.031 107.718 383.515 106.202 382.363 104.321C381.211 102.38 380.634 100.256 380.634 97.951V45.08H392.643V97.405C392.643 97.7083 392.734 97.9813 392.916 98.224C393.159 98.406 393.431 98.497 393.735 98.497H432.854C433.157 98.497 433.43 98.406 433.673 98.224C433.915 97.9813 434.037 97.7083 434.037 97.405V45.08H446.136V97.951C446.136 100.256 445.56 102.38 444.408 104.321C443.255 106.202 441.709 107.718 439.768 108.871C437.888 110.024 435.796 110.6 433.491 110.6H393.28Z" fill="#0ECCED"/>
<path d="M468.528 110.6C466.223 110.6 464.1 110.024 462.159 108.871C460.279 107.718 458.763 106.202 457.611 104.321C456.458 102.38 455.882 100.256 455.882 97.951V92.946H467.891V97.405C467.891 97.7083 467.982 97.9813 468.164 98.224C468.406 98.406 468.679 98.497 468.982 98.497H508.193C508.496 98.497 508.739 98.406 508.921 98.224C509.163 97.9813 509.284 97.7083 509.284 97.405V84.938C509.284 84.6347 509.163 84.392 508.921 84.21C508.739 84.028 508.496 83.937 508.193 83.937H468.528C466.223 83.937 464.1 83.3607 462.159 82.208C460.279 81.0553 458.763 79.5387 457.611 77.658C456.458 75.7167 455.882 73.563 455.882 71.197V57.729C455.882 55.4237 456.458 53.3307 457.611 51.45C458.763 49.5087 460.279 47.9617 462.159 46.809C464.1 45.6563 466.223 45.08 468.528 45.08H508.739C511.043 45.08 513.136 45.6563 515.016 46.809C516.957 47.9617 518.503 49.5087 519.656 51.45C520.808 53.3307 521.384 55.4237 521.384 57.729V62.734H509.284V58.275C509.284 57.9717 509.163 57.729 508.921 57.547C508.739 57.3043 508.496 57.183 508.193 57.183H468.982C468.679 57.183 468.406 57.3043 468.164 57.547C467.982 57.729 467.891 57.9717 467.891 58.275V70.742C467.891 71.0453 467.982 71.288 468.164 71.47C468.406 71.652 468.679 71.743 468.982 71.743H508.739C511.043 71.743 513.136 72.3193 515.016 73.472C516.957 74.6247 518.503 76.1717 519.656 78.113C520.808 79.9937 521.384 82.117 521.384 84.483V97.951C521.384 100.256 520.808 102.38 519.656 104.321C518.503 106.202 516.957 107.718 515.016 108.871C513.136 110.024 511.043 110.6 508.739 110.6H468.528Z" fill="#0ECCED"/>
<path d="M531.498 110.6V45.08H584.263C586.568 45.08 588.691 45.6563 590.632 46.809C592.573 47.9617 594.119 49.5087 595.271 51.45C596.424 53.3307 597 55.4237 597 57.729V97.951C597 100.256 596.424 102.38 595.271 104.321C594.119 106.202 592.573 107.718 590.632 108.871C588.691 110.024 586.568 110.6 584.263 110.6H531.498ZM544.507 98.497H583.718C584.021 98.497 584.294 98.406 584.536 98.224C584.779 97.9813 584.9 97.7083 584.9 97.405V58.275C584.9 57.9717 584.779 57.729 584.536 57.547C584.294 57.3043 584.021 57.183 583.718 57.183H544.507C544.204 57.183 543.931 57.3043 543.689 57.547C543.507 57.729 543.416 57.9717 543.416 58.275V97.405C543.416 97.7083 543.507 97.9813 543.689 98.224C543.931 98.406 544.204 98.497 544.507 98.497Z" fill="#0ECCED"/>
</svg>
