<svg width="854" height="220" viewBox="0 0 854 220" fill="none" xmlns="http://www.w3.org/2000/svg">
<path d="M251.978 0H100.022C70.0822 0 45.8309 24.5922 45.8309 54.9242V165.076C45.8309 195.408 70.0822 220 100.022 220H251.978C270.172 220 286.248 210.924 296.082 196.994C302.461 188.011 306.192 176.975 306.192 165.076V54.9242C306.192 24.5922 281.918 0 251.978 0ZM251.978 173.335H100.022C95.531 173.335 91.8922 169.626 91.8922 165.076V54.9242C91.8922 50.3744 95.531 46.6645 100.022 46.6645H251.978C256.469 46.6645 260.131 50.3744 260.131 54.9242V165.076C260.131 165.076 260.131 165.309 260.108 165.426C259.947 169.812 256.354 173.335 251.978 173.335Z" fill="white"/>
<path d="M352 87.5427H0V132.411H352V87.5427Z" fill="white"/>
<path d="M345.045 174.059V219.697L344.745 220L317.247 207.237C312.756 205.067 308.357 202.944 304.073 200.868C301.217 199.491 298.546 198.184 296.082 196.994C294.838 196.388 293.663 195.804 292.512 195.244C289.103 193.565 286.225 192.025 283.898 190.648L274.824 172.262L260.108 165.426C260.108 165.426 260.131 165.192 260.131 165.076L260.131 122.588C264.207 124.548 268.33 126.601 272.475 128.701C279.5 132.247 286.524 136.004 293.548 139.97L302.622 155.37L306.192 156.933L345.045 174.059Z" fill="white"/>
<path d="M503.64 158V143.7L522.62 139.02V140.71H533.8V158H503.64ZM447.09 158C443.797 158 440.763 157.177 437.99 155.53C435.303 153.883 433.137 151.717 431.49 149.03C429.843 146.257 429.02 143.223 429.02 139.93V82.47C429.02 79.1767 429.843 76.1867 431.49 73.5C433.137 70.7267 435.303 68.5167 437.99 66.87C440.763 65.2233 443.797 64.4 447.09 64.4H504.55C507.843 64.4 510.833 65.2233 513.52 66.87C516.293 68.5167 518.503 70.7267 520.15 73.5C521.797 76.1867 522.62 79.1767 522.62 82.47V139.93C522.62 143.223 521.797 146.257 520.15 149.03C518.503 151.717 516.293 153.883 513.52 155.53C510.833 157.177 507.843 158 504.55 158H447.09ZM447.74 140.71H503.64C504.073 140.71 504.463 140.58 504.81 140.32C505.157 139.973 505.33 139.583 505.33 139.15V83.25C505.33 82.8167 505.157 82.47 504.81 82.21C504.463 81.8633 504.073 81.69 503.64 81.69H447.74C447.307 81.69 446.917 81.8633 446.57 82.21C446.31 82.47 446.18 82.8167 446.18 83.25V139.15C446.18 139.583 446.31 139.973 446.57 140.32C446.917 140.58 447.307 140.71 447.74 140.71Z" fill="white"/>
<path d="M561.983 158C558.689 158 555.656 157.177 552.883 155.53C550.196 153.883 548.029 151.717 546.383 149.03C544.736 146.257 543.913 143.223 543.913 139.93V64.4H561.073V139.15C561.073 139.583 561.203 139.973 561.463 140.32C561.809 140.58 562.199 140.71 562.633 140.71H618.533C618.966 140.71 619.356 140.58 619.703 140.32C620.049 139.973 620.223 139.583 620.223 139.15V64.4H637.513V139.93C637.513 143.223 636.689 146.257 635.043 149.03C633.396 151.717 631.186 153.883 628.413 155.53C625.726 157.177 622.736 158 619.443 158H561.983Z" fill="white"/>
<path d="M669.509 158C666.216 158 663.182 157.177 660.409 155.53C657.722 153.883 655.555 151.717 653.909 149.03C652.262 146.257 651.439 143.223 651.439 139.93V132.78H668.599V139.15C668.599 139.583 668.729 139.973 668.989 140.32C669.336 140.58 669.725 140.71 670.159 140.71H726.189C726.622 140.71 726.969 140.58 727.229 140.32C727.576 139.973 727.749 139.583 727.749 139.15V121.34C727.749 120.907 727.576 120.56 727.229 120.3C726.969 120.04 726.622 119.91 726.189 119.91H669.509C666.216 119.91 663.182 119.087 660.409 117.44C657.722 115.793 655.555 113.627 653.909 110.94C652.262 108.167 651.439 105.09 651.439 101.71V82.47C651.439 79.1767 652.262 76.1867 653.909 73.5C655.555 70.7267 657.722 68.5167 660.409 66.87C663.182 65.2233 666.216 64.4 669.509 64.4H726.969C730.262 64.4 733.252 65.2233 735.939 66.87C738.712 68.5167 740.922 70.7267 742.569 73.5C744.216 76.1867 745.039 79.1767 745.039 82.47V89.62H727.749V83.25C727.749 82.8167 727.576 82.47 727.229 82.21C726.969 81.8633 726.622 81.69 726.189 81.69H670.159C669.725 81.69 669.336 81.8633 668.989 82.21C668.729 82.47 668.599 82.8167 668.599 83.25V101.06C668.599 101.493 668.729 101.84 668.989 102.1C669.336 102.36 669.725 102.49 670.159 102.49H726.969C730.262 102.49 733.252 103.313 735.939 104.96C738.712 106.607 740.922 108.817 742.569 111.59C744.216 114.277 745.039 117.31 745.039 120.69V139.93C745.039 143.223 744.216 146.257 742.569 149.03C740.922 151.717 738.712 153.883 735.939 155.53C733.252 157.177 730.262 158 726.969 158H669.509Z" fill="white"/>
<path d="M759.491 158V64.4H834.891C838.185 64.4 841.218 65.2233 843.991 66.87C846.764 68.5167 848.974 70.7267 850.621 73.5C852.268 76.1867 853.091 79.1767 853.091 82.47V139.93C853.091 143.223 852.268 146.257 850.621 149.03C848.974 151.717 846.764 153.883 843.991 155.53C841.218 157.177 838.185 158 834.891 158H759.491ZM778.081 140.71H834.111C834.545 140.71 834.935 140.58 835.281 140.32C835.628 139.973 835.801 139.583 835.801 139.15V83.25C835.801 82.8167 835.628 82.47 835.281 82.21C834.935 81.8633 834.545 81.69 834.111 81.69H778.081C777.648 81.69 777.258 81.8633 776.911 82.21C776.651 82.47 776.521 82.8167 776.521 83.25V139.15C776.521 139.583 776.651 139.973 776.911 140.32C777.258 140.58 777.648 140.71 778.081 140.71Z" fill="white"/>
</svg>
