<svg width="433" height="220" viewBox="0 0 433 220" fill="none" xmlns="http://www.w3.org/2000/svg">
<path d="M251.978 0H100.022C70.0822 0 45.8309 24.5922 45.8309 54.9242V165.076C45.8309 195.408 70.0822 220 100.022 220H251.978C270.172 220 286.248 210.924 296.082 196.994C302.461 188.011 306.192 176.975 306.192 165.076V54.9242C306.192 24.5922 281.918 0 251.978 0ZM251.978 173.335H100.022C95.531 173.335 91.8922 169.626 91.8922 165.076V54.9242C91.8922 50.3744 95.531 46.6645 100.022 46.6645H251.978C256.469 46.6645 260.131 50.3744 260.131 54.9242V165.076C260.131 165.076 260.131 165.309 260.108 165.426C259.947 169.812 256.354 173.335 251.978 173.335Z" fill="black"/>
<path d="M352 87.5427H0V132.411H352V87.5427Z" fill="black"/>
<path d="M345.045 174.059V219.697L344.745 220L317.247 207.237C312.756 205.067 308.357 202.944 304.073 200.868C301.217 199.491 298.546 198.184 296.082 196.994C294.838 196.388 293.663 195.804 292.512 195.244C289.103 193.565 286.225 192.025 283.898 190.648L274.824 172.262L260.108 165.426C260.108 165.426 260.131 165.192 260.131 165.076L260.131 122.588C264.207 124.548 268.33 126.601 272.475 128.701C279.5 132.247 286.524 136.004 293.548 139.97L302.622 155.37L306.192 156.933L345.045 174.059Z" fill="black"/>
<path d="M418.186 51V42.36L427.426 41.64H432.346V51H418.186ZM393.106 51C391.506 51 390.026 50.6 388.666 49.8C387.306 49 386.226 47.92 385.426 46.56C384.626 45.2 384.226 43.72 384.226 42.12V16.68C384.226 15.04 384.626 13.56 385.426 12.24C386.226 10.88 387.306 9.8 388.666 9C390.026 8.2 391.506 7.8 393.106 7.8H418.546C420.146 7.8 421.606 8.2 422.926 9C424.286 9.8 425.366 10.88 426.166 12.24C427.006 13.56 427.426 15.04 427.426 16.68V42.12C427.426 43.72 427.006 45.2 426.166 46.56C425.366 47.92 424.286 49 422.926 49.8C421.606 50.6 420.146 51 418.546 51H393.106ZM393.526 41.64H418.006V17.16H393.526V41.64Z" fill="black"/>
<path d="M394.776 106C393.176 106 391.696 105.6 390.336 104.8C388.976 104 387.896 102.92 387.096 101.56C386.296 100.2 385.896 98.72 385.896 97.12V62.8H395.196V96.64H419.676V62.8H429.096V97.12C429.096 98.72 428.676 100.2 427.836 101.56C427.036 102.92 425.956 104 424.596 104.8C423.276 105.6 421.816 106 420.216 106H394.776Z" fill="black"/>
<path d="M394.776 161C393.176 161 391.696 160.6 390.336 159.8C388.976 159 387.896 157.92 387.096 156.56C386.296 155.2 385.896 153.72 385.896 152.12V148.1H395.196V151.64H419.676V144.08H394.776C393.176 144.08 391.696 143.68 390.336 142.88C388.976 142.08 387.896 141.02 387.096 139.7C386.296 138.34 385.896 136.84 385.896 135.2V126.68C385.896 125.04 386.296 123.56 387.096 122.24C387.896 120.88 388.976 119.8 390.336 119C391.696 118.2 393.176 117.8 394.776 117.8H420.216C421.816 117.8 423.276 118.2 424.596 119C425.956 119.8 427.036 120.88 427.836 122.24C428.676 123.56 429.096 125.04 429.096 126.68V130.7H419.676V127.16H395.196V134.72H420.216C421.816 134.72 423.276 135.12 424.596 135.92C425.956 136.72 427.036 137.8 427.836 139.16C428.676 140.48 429.096 141.96 429.096 143.6V152.12C429.096 153.72 428.676 155.2 427.836 156.56C427.036 157.92 425.956 159 424.596 159.8C423.276 160.6 421.816 161 420.216 161H394.776Z" fill="black"/>
<path d="M385.96 216V172.8H420.22C421.86 172.8 423.34 173.2 424.66 174C426.02 174.8 427.1 175.88 427.9 177.24C428.74 178.56 429.16 180.04 429.16 181.68V207.12C429.16 208.72 428.74 210.2 427.9 211.56C427.1 212.92 426.02 214 424.66 214.8C423.34 215.6 421.86 216 420.22 216H385.96ZM395.2 206.64H419.74V182.16H395.2V206.64Z" fill="black"/>
</svg>
