<svg width="540" height="579" viewBox="0 0 540 579" fill="none" xmlns="http://www.w3.org/2000/svg">
<path d="M386.557 0H153.443C107.512 0 70.3088 38.0285 70.3088 84.9327V255.267C70.3088 302.171 107.512 340.2 153.443 340.2H386.557C414.469 340.2 439.13 326.165 454.216 304.625C464.003 290.734 469.727 273.668 469.727 255.267V84.9327C469.727 38.0285 432.488 0 386.557 0ZM386.557 268.04H153.443C146.553 268.04 140.971 262.303 140.971 255.267V84.9327C140.971 77.8971 146.553 72.1603 153.443 72.1603H386.557C393.447 72.1603 399.064 77.8971 399.064 84.9327V255.267C399.064 255.267 399.064 255.628 399.029 255.808C398.782 262.591 393.27 268.04 386.557 268.04Z" fill="#030812"/>
<path d="M540 135.373H0V204.755H540V135.373Z" fill="#030812"/>
<path fill-rule="evenodd" clip-rule="evenodd" d="M471.33 350.02L329.838 268.329H190.731L471.33 430.333V350.02Z" fill="#030812"/>
<path d="M196.717 559.224C193.44 559.224 190.409 558.405 187.624 556.768C184.839 555.13 182.627 552.92 180.989 550.136C179.351 547.352 178.532 544.323 178.532 541.048V470.801H197.577V540.065H247.709V470.801H267V541.048C267 544.323 266.14 547.352 264.42 550.136C262.782 552.92 260.57 555.13 257.785 556.768C255.082 558.405 252.092 559.224 248.815 559.224H196.717Z" fill="#030812"/>
<path d="M298.471 559.224C295.195 559.224 292.164 558.405 289.379 556.768C286.593 555.13 284.382 552.92 282.743 550.136C281.105 547.352 280.286 544.323 280.286 541.048V532.82H299.331V540.065H349.463V524.591H298.471C295.195 524.591 292.164 523.773 289.379 522.135C286.593 520.498 284.382 518.328 282.743 515.626C281.105 512.843 280.286 509.772 280.286 506.416V488.977C280.286 485.62 281.105 482.591 282.743 479.889C284.382 477.105 286.593 474.894 289.379 473.257C292.164 471.62 295.195 470.801 298.471 470.801H350.569C353.846 470.801 356.836 471.62 359.539 473.257C362.324 474.894 364.536 477.105 366.174 479.889C367.894 482.591 368.754 485.62 368.754 488.977V497.205H349.463V489.959H299.331V505.433H350.569C353.846 505.433 356.836 506.252 359.539 507.889C362.324 509.527 364.536 511.737 366.174 514.521C367.894 517.223 368.754 520.252 368.754 523.609V541.048C368.754 544.323 367.894 547.352 366.174 550.136C364.536 552.92 362.324 555.13 359.539 556.768C356.836 558.405 353.846 559.224 350.569 559.224H298.471Z" fill="#030812"/>
<path d="M382.532 559.224V470.801H452.692C456.05 470.801 459.081 471.62 461.784 473.257C464.57 474.894 466.781 477.105 468.42 479.889C470.14 482.591 471 485.62 471 488.977V541.048C471 544.323 470.14 547.352 468.42 550.136C466.781 552.92 464.57 555.13 461.784 556.768C459.081 558.405 456.05 559.224 452.692 559.224H382.532ZM401.454 540.065H451.709V489.959H401.454V540.065Z" fill="#030812"/>
<path fill-rule="evenodd" clip-rule="evenodd" d="M139.177 537.349V489.959L89.0453 489.959V540.065H114.612H139.177V537.349ZM155.888 550.136C155.404 550.959 154.869 551.732 154.284 552.456L158.431 556.603L158.561 578.492L133.771 559.224H88.1852C84.9086 559.224 81.8777 558.405 79.0926 556.768C76.3075 555.13 74.0958 552.92 72.4575 550.136C70.8192 547.352 70 544.323 70 541.048V488.977C70 485.62 70.8192 482.591 72.4575 479.889C74.0958 477.105 76.3075 474.894 79.0926 473.257C81.8777 471.62 84.9086 470.801 88.1852 470.801L140.283 470.801C143.56 470.801 146.55 471.62 149.253 473.257C152.038 474.894 154.25 477.105 155.888 479.889C157.608 482.591 158.468 485.62 158.468 488.977V540.065L158.468 541.048C158.468 544.323 157.608 547.352 155.888 550.136Z" fill="#030812"/>
</svg>
