<svg width="540" height="431" viewBox="0 0 540 431" fill="none" xmlns="http://www.w3.org/2000/svg">
<path d="M386.557 0H153.443C107.512 0 70.3088 38.0285 70.3088 84.9327V255.267C70.3088 302.171 107.512 340.2 153.443 340.2H386.557C414.469 340.2 439.13 326.165 454.216 304.625C464.003 290.734 469.727 273.668 469.727 255.267V84.9327C469.727 38.0285 432.488 0 386.557 0ZM386.557 268.04H153.443C146.553 268.04 140.971 262.303 140.971 255.267V84.9327C140.971 77.8971 146.553 72.1603 153.443 72.1603H386.557C393.447 72.1603 399.064 77.8971 399.064 84.9327V255.267C399.064 255.267 399.064 255.628 399.029 255.808C398.782 262.591 393.27 268.04 386.557 268.04Z" fill="#030812"/>
<path d="M540 135.373H0V204.755H540V135.373Z" fill="#030812"/>
<path fill-rule="evenodd" clip-rule="evenodd" d="M471.33 350.02L329.838 268.329H190.731L471.33 430.333V350.02Z" fill="#030812"/>
</svg>
