<svg width="303" height="154" viewBox="0 0 303 154" fill="none" xmlns="http://www.w3.org/2000/svg">
<path d="M176.593 0H70.0981C49.1155 0 32.1196 17.2146 32.1196 38.4469V115.553C32.1196 136.785 49.1155 154 70.0981 154H176.593C189.344 154 200.61 147.647 207.502 137.896C211.973 131.608 214.588 123.883 214.588 115.553V38.4469C214.588 17.2146 197.576 0 176.593 0ZM176.593 121.335H70.0981C66.9507 121.335 64.4005 118.738 64.4005 115.553V38.4469C64.4005 35.2621 66.9507 32.6652 70.0981 32.6652H176.593C179.74 32.6652 182.307 35.2621 182.307 38.4469V115.553C182.307 115.553 182.307 115.716 182.291 115.798C182.178 118.869 179.66 121.335 176.593 121.335Z" fill="#020764"/>
<path d="M246.691 61.2799H0V92.6874H246.691V61.2799Z" fill="#020764"/>
<path d="M241.817 121.841V153.788L241.607 154L222.335 145.066C219.188 143.547 216.105 142.061 213.103 140.607C211.101 139.644 209.229 138.729 207.502 137.896C206.63 137.471 205.807 137.063 205 136.671C202.611 135.495 200.594 134.417 198.964 133.454L192.604 120.584L182.291 115.798C182.291 115.798 182.307 115.635 182.307 115.553L182.307 85.8114C185.164 87.1834 188.053 88.6206 190.958 90.0906C195.881 92.5731 200.804 95.2027 205.727 97.9792L212.086 108.759L214.588 109.853L241.817 121.841Z" fill="#020764"/>
<path d="M293.076 35.7V29.652L299.552 29.148H303V35.7H293.076ZM275.5 35.7C274.378 35.7 273.341 35.42 272.388 34.86C271.435 34.3 270.678 33.544 270.117 32.592C269.557 31.64 269.276 30.604 269.276 29.484V11.676C269.276 10.528 269.557 9.492 270.117 8.568C270.678 7.616 271.435 6.86 272.388 6.3C273.341 5.74 274.378 5.46 275.5 5.46H293.329C294.45 5.46 295.473 5.74 296.398 6.3C297.351 6.86 298.108 7.616 298.669 8.568C299.258 9.492 299.552 10.528 299.552 11.676V29.484C299.552 30.604 299.258 31.64 298.669 32.592C298.108 33.544 297.351 34.3 296.398 34.86C295.473 35.42 294.45 35.7 293.329 35.7H275.5ZM275.794 29.148H292.95V12.012H275.794V29.148Z" fill="#020764"/>
<path d="M276.67 74.2C275.549 74.2 274.511 73.92 273.558 73.36C272.605 72.8 271.848 72.044 271.288 71.092C270.727 70.14 270.447 69.104 270.447 67.984V43.96H276.964V67.648H294.12V43.96H300.722V67.984C300.722 69.104 300.428 70.14 299.839 71.092C299.279 72.044 298.522 72.8 297.569 73.36C296.643 73.92 295.62 74.2 294.499 74.2H276.67Z" fill="#020764"/>
<path d="M276.67 112.7C275.549 112.7 274.511 112.42 273.558 111.86C272.605 111.3 271.848 110.544 271.288 109.592C270.727 108.64 270.447 107.604 270.447 106.484V103.67H276.964V106.148H294.12V100.856H276.67C275.549 100.856 274.511 100.576 273.558 100.016C272.605 99.456 271.848 98.714 271.288 97.79C270.727 96.838 270.447 95.788 270.447 94.64V88.676C270.447 87.528 270.727 86.492 271.288 85.568C271.848 84.616 272.605 83.86 273.558 83.3C274.511 82.74 275.549 82.46 276.67 82.46H294.499C295.62 82.46 296.643 82.74 297.569 83.3C298.522 83.86 299.279 84.616 299.839 85.568C300.428 86.492 300.722 87.528 300.722 88.676V91.49H294.12V89.012H276.964V94.304H294.499C295.62 94.304 296.643 94.584 297.569 95.144C298.522 95.704 299.279 96.46 299.839 97.412C300.428 98.336 300.722 99.372 300.722 100.52V106.484C300.722 107.604 300.428 108.64 299.839 109.592C299.279 110.544 298.522 111.3 297.569 111.86C296.643 112.42 295.62 112.7 294.499 112.7H276.67Z" fill="#020764"/>
<path d="M270.492 151.2V120.96H294.502C295.651 120.96 296.688 121.24 297.614 121.8C298.567 122.36 299.324 123.116 299.884 124.068C300.473 124.992 300.767 126.028 300.767 127.176V144.984C300.767 146.104 300.473 147.14 299.884 148.092C299.324 149.044 298.567 149.8 297.614 150.36C296.688 150.92 295.651 151.2 294.502 151.2H270.492ZM276.967 144.648H294.165V127.512H276.967V144.648Z" fill="#020764"/>
</svg>
