<svg width="433" height="220" viewBox="0 0 433 220" fill="none" xmlns="http://www.w3.org/2000/svg">
<path d="M251.978 0H100.022C70.0822 0 45.8309 24.5922 45.8309 54.9242V165.076C45.8309 195.408 70.0822 220 100.022 220H251.978C270.172 220 286.248 210.924 296.082 196.994C302.461 188.011 306.192 176.975 306.192 165.076V54.9242C306.192 24.5922 281.918 0 251.978 0ZM251.978 173.335H100.022C95.531 173.335 91.8922 169.626 91.8922 165.076V54.9242C91.8922 50.3744 95.531 46.6645 100.022 46.6645H251.978C256.469 46.6645 260.131 50.3744 260.131 54.9242V165.076C260.131 165.076 260.131 165.309 260.108 165.426C259.947 169.812 256.354 173.335 251.978 173.335Z" fill="white"/>
<path d="M352 87.5427H0V132.411H352V87.5427Z" fill="white"/>
<path d="M345.045 174.059V219.697L344.745 220L317.247 207.237C312.756 205.067 308.357 202.944 304.073 200.868C301.217 199.491 298.546 198.184 296.082 196.994C294.838 196.388 293.663 195.804 292.512 195.244C289.103 193.565 286.225 192.025 283.898 190.648L274.824 172.262L260.108 165.426C260.108 165.426 260.131 165.192 260.131 165.076L260.131 122.588C264.207 124.548 268.33 126.601 272.475 128.701C279.5 132.247 286.524 136.004 293.548 139.97L302.622 155.37L306.192 156.933L345.045 174.059Z" fill="white"/>
<path d="M418.426 51V43.32L427.426 41.94V42.3H432.466V51H418.426ZM392.866 51C391.266 51 389.806 50.62 388.486 49.86C387.206 49.06 386.166 48.02 385.366 46.74C384.606 45.42 384.226 43.96 384.226 42.36V16.44C384.226 14.84 384.606 13.4 385.366 12.12C386.166 10.8 387.206 9.76 388.486 9C389.806 8.2 391.266 7.8 392.866 7.8H418.786C420.346 7.8 421.766 8.2 423.046 9C424.366 9.76 425.426 10.8 426.226 12.12C427.026 13.4 427.426 14.84 427.426 16.44V42.36C427.426 43.96 427.026 45.42 426.226 46.74C425.426 48.02 424.366 49.06 423.046 49.86C421.766 50.62 420.346 51 418.786 51H392.866ZM393.226 42.3H418.306C418.426 42.3 418.506 42.28 418.546 42.24C418.626 42.16 418.666 42.06 418.666 41.94V16.86C418.666 16.74 418.626 16.66 418.546 16.62C418.506 16.54 418.426 16.5 418.306 16.5H393.226C393.106 16.5 393.006 16.54 392.926 16.62C392.886 16.66 392.866 16.74 392.866 16.86V41.94C392.866 42.06 392.886 42.16 392.926 42.24C393.006 42.28 393.106 42.3 393.226 42.3Z" fill="white"/>
<path d="M394.536 106C392.936 106 391.476 105.62 390.156 104.86C388.876 104.06 387.836 103.02 387.036 101.74C386.276 100.42 385.896 98.96 385.896 97.36V62.8H394.536V96.94C394.536 97.06 394.556 97.16 394.596 97.24C394.676 97.28 394.776 97.3 394.896 97.3H419.976C420.096 97.3 420.176 97.28 420.216 97.24C420.296 97.16 420.336 97.06 420.336 96.94V62.8H429.096V97.36C429.096 98.96 428.696 100.42 427.896 101.74C427.096 103.02 426.036 104.06 424.716 104.86C423.436 105.62 422.016 106 420.456 106H394.536Z" fill="white"/>
<path d="M394.506 161C392.946 161 391.506 160.62 390.186 159.86C388.866 159.06 387.826 158.02 387.066 156.74C386.306 155.42 385.926 153.96 385.926 152.36V148.7H394.566V151.94C394.566 152.06 394.586 152.16 394.626 152.24C394.706 152.28 394.786 152.3 394.866 152.3H420.006C420.086 152.3 420.166 152.28 420.246 152.24C420.326 152.16 420.366 152.06 420.366 151.94V144.08C420.366 144 420.326 143.94 420.246 143.9C420.166 143.82 420.086 143.78 420.006 143.78H394.506C392.946 143.78 391.506 143.4 390.186 142.64C388.866 141.84 387.826 140.78 387.066 139.46C386.306 138.14 385.926 136.7 385.926 135.14V126.44C385.926 124.84 386.306 123.4 387.066 122.12C387.826 120.8 388.866 119.76 390.186 119C391.506 118.2 392.946 117.8 394.506 117.8H420.486C422.046 117.8 423.466 118.2 424.746 119C426.066 119.76 427.126 120.8 427.926 122.12C428.726 123.4 429.126 124.84 429.126 126.44V130.1H420.366V126.86C420.366 126.74 420.326 126.66 420.246 126.62C420.166 126.54 420.086 126.5 420.006 126.5H394.866C394.786 126.5 394.706 126.54 394.626 126.62C394.586 126.66 394.566 126.74 394.566 126.86V134.72C394.566 134.8 394.586 134.88 394.626 134.96C394.706 135 394.786 135.02 394.866 135.02H420.486C422.046 135.02 423.466 135.42 424.746 136.22C426.066 136.98 427.126 138.02 427.926 139.34C428.726 140.66 429.126 142.1 429.126 143.66V152.36C429.126 153.96 428.726 155.42 427.926 156.74C427.126 158.02 426.066 159.06 424.746 159.86C423.466 160.62 422.046 161 420.486 161H394.506Z" fill="white"/>
<path d="M385.96 216V172.8H420.46C422.06 172.8 423.5 173.2 424.78 174C426.1 174.76 427.16 175.8 427.96 177.12C428.76 178.4 429.16 179.84 429.16 181.44V207.36C429.16 208.96 428.76 210.42 427.96 211.74C427.16 213.02 426.1 214.06 424.78 214.86C423.5 215.62 422.06 216 420.46 216H385.96ZM394.9 207.3H420.04C420.16 207.3 420.24 207.28 420.28 207.24C420.36 207.16 420.4 207.06 420.4 206.94V181.86C420.4 181.74 420.36 181.66 420.28 181.62C420.24 181.54 420.16 181.5 420.04 181.5H394.9C394.82 181.5 394.74 181.54 394.66 181.62C394.58 181.66 394.54 181.74 394.54 181.86V206.94C394.54 207.06 394.58 207.16 394.66 207.24C394.74 207.28 394.82 207.3 394.9 207.3Z" fill="white"/>
</svg>
