<svg width="727" height="162" viewBox="0 0 727 162" fill="none" xmlns="http://www.w3.org/2000/svg">
<path d="M186.12 0H73.8799C51.7652 0 33.8524 18.1088 33.8524 40.4442V121.556C33.8524 143.891 51.7652 162 73.8799 162H186.12C199.559 162 211.433 155.317 218.697 145.059C223.409 138.445 226.165 130.318 226.165 121.556V40.4442C226.165 18.1088 208.235 0 186.12 0ZM186.12 127.638H73.8799C70.5627 127.638 67.8749 124.906 67.8749 121.556V40.4442C67.8749 37.0939 70.5627 34.3621 73.8799 34.3621H186.12C189.437 34.3621 192.142 37.0939 192.142 40.4442V121.556C192.142 121.556 192.142 121.728 192.125 121.814C192.006 125.044 189.352 127.638 186.12 127.638Z" fill="white"/>
<path d="M260 64.4632H0V97.5024H260V64.4632Z" fill="white"/>
<path d="M254.863 128.171V161.777L254.641 162L234.33 152.602C231.013 151.004 227.764 149.441 224.6 147.912C222.49 146.898 220.517 145.936 218.697 145.059C217.778 144.613 216.91 144.183 216.06 143.771C213.542 142.534 211.416 141.4 209.698 140.386L202.995 126.848L192.125 121.814C192.125 121.814 192.142 121.642 192.142 121.556V90.2692C195.153 91.7124 198.198 93.2243 201.26 94.7706C206.449 97.3821 211.637 100.148 216.825 103.069L223.528 114.409L226.165 115.56L254.863 128.171Z" fill="white"/>
<path d="M323.795 144C319.235 144 315.035 142.86 311.195 140.58C307.475 138.3 304.475 135.3 302.195 131.58C299.915 127.74 298.775 123.54 298.775 118.98V14.4H322.535V117.9C322.535 118.5 322.715 119.04 323.075 119.52C323.555 119.88 324.095 120.06 324.695 120.06H402.095C402.695 120.06 403.235 119.88 403.715 119.52C404.195 119.04 404.435 118.5 404.435 117.9V14.4H428.375V118.98C428.375 123.54 427.235 127.74 424.955 131.58C422.675 135.3 419.615 138.3 415.775 140.58C412.055 142.86 407.915 144 403.355 144H323.795Z" fill="white"/>
<path d="M472.677 144C468.117 144 463.917 142.86 460.077 140.58C456.357 138.3 453.357 135.3 451.077 131.58C448.797 127.74 447.657 123.54 447.657 118.98V109.08H471.417V117.9C471.417 118.5 471.597 119.04 471.957 119.52C472.437 119.88 472.977 120.06 473.577 120.06H551.157C551.757 120.06 552.237 119.88 552.597 119.52C553.077 119.04 553.317 118.5 553.317 117.9V93.24C553.317 92.64 553.077 92.16 552.597 91.8C552.237 91.44 551.757 91.26 551.157 91.26H472.677C468.117 91.26 463.917 90.12 460.077 87.84C456.357 85.56 453.357 82.56 451.077 78.84C448.797 75 447.657 70.74 447.657 66.06V39.42C447.657 34.86 448.797 30.72 451.077 27C453.357 23.16 456.357 20.1 460.077 17.82C463.917 15.54 468.117 14.4 472.677 14.4H552.237C556.797 14.4 560.937 15.54 564.657 17.82C568.497 20.1 571.557 23.16 573.837 27C576.117 30.72 577.257 34.86 577.257 39.42V49.32H553.317V40.5C553.317 39.9 553.077 39.42 552.597 39.06C552.237 38.58 551.757 38.34 551.157 38.34H473.577C472.977 38.34 472.437 38.58 471.957 39.06C471.597 39.42 471.417 39.9 471.417 40.5V65.16C471.417 65.76 471.597 66.24 471.957 66.6C472.437 66.96 472.977 67.14 473.577 67.14H552.237C556.797 67.14 560.937 68.28 564.657 70.56C568.497 72.84 571.557 75.9 573.837 79.74C576.117 83.46 577.257 87.66 577.257 92.34V118.98C577.257 123.54 576.117 127.74 573.837 131.58C571.557 135.3 568.497 138.3 564.657 140.58C560.937 142.86 556.797 144 552.237 144H472.677Z" fill="white"/>
<path d="M597.268 144V14.4H701.668C706.228 14.4 710.428 15.54 714.268 17.82C718.108 20.1 721.168 23.16 723.448 27C725.728 30.72 726.868 34.86 726.868 39.42V118.98C726.868 123.54 725.728 127.74 723.448 131.58C721.168 135.3 718.108 138.3 714.268 140.58C710.428 142.86 706.228 144 701.668 144H597.268ZM623.008 120.06H700.588C701.188 120.06 701.728 119.88 702.208 119.52C702.688 119.04 702.928 118.5 702.928 117.9V40.5C702.928 39.9 702.688 39.42 702.208 39.06C701.728 38.58 701.188 38.34 700.588 38.34H623.008C622.408 38.34 621.868 38.58 621.388 39.06C621.028 39.42 620.848 39.9 620.848 40.5V117.9C620.848 118.5 621.028 119.04 621.388 119.52C621.868 119.88 622.408 120.06 623.008 120.06Z" fill="white"/>
</svg>
