<svg width="250" height="243" viewBox="0 0 250 243" fill="none" xmlns="http://www.w3.org/2000/svg">
<path d="M176.453 0H70.0424C49.0765 0 32.094 17.2216 32.094 38.4627V115.601C32.094 136.842 49.0765 154.063 70.0424 154.063H176.453C189.194 154.063 200.451 147.707 207.337 137.953C211.804 131.662 214.417 123.934 214.417 115.601V38.4627C214.417 17.2216 197.419 0 176.453 0ZM176.453 121.385H70.0424C66.8975 121.385 64.3493 118.787 64.3493 115.601V38.4627C64.3493 35.2766 66.8975 32.6786 70.0424 32.6786H176.453C179.598 32.6786 182.162 35.2766 182.162 38.4627V115.601C182.162 115.601 182.162 115.764 182.146 115.846C182.033 118.918 179.517 121.385 176.453 121.385Z" fill="#0ECCED"/>
<path d="M246.495 61.3051H0V92.7256H246.495V61.3051Z" fill="#0ECCED"/>
<path d="M241.625 121.891V153.851L241.415 154.063L222.158 145.126C219.014 143.606 215.933 142.119 212.933 140.665C210.934 139.701 209.063 138.786 207.337 137.953C206.466 137.528 205.644 137.12 204.837 136.727C202.45 135.551 200.434 134.473 198.806 133.509L192.451 120.633L182.146 115.846C182.146 115.846 182.162 115.682 182.162 115.601L182.162 85.8468C185.016 87.2193 187.903 88.6571 190.806 90.1277C195.725 92.6113 200.644 95.2419 205.563 98.0196L211.917 108.804L214.417 109.898L241.625 121.891Z" fill="#0ECCED"/>
<path d="M61.7614 243V235.297L71.9853 232.776V233.686H78.0076V243H61.7614ZM31.2996 243C29.5256 243 27.8916 242.556 26.3977 241.669C24.9505 240.782 23.7834 239.615 22.8964 238.168C22.0094 236.674 21.5659 235.04 21.5659 233.266V202.313C21.5659 200.539 22.0094 198.929 22.8964 197.481C23.7834 195.987 24.9505 194.797 26.3977 193.91C27.8916 193.023 29.5256 192.579 31.2996 192.579H62.2516C64.0256 192.579 65.6362 193.023 67.0834 193.91C68.5773 194.797 69.7678 195.987 70.6548 197.481C71.5418 198.929 71.9853 200.539 71.9853 202.313V233.266C71.9853 235.04 71.5418 236.674 70.6548 238.168C69.7678 239.615 68.5773 240.782 67.0834 241.669C65.6362 242.556 64.0256 243 62.2516 243H31.2996ZM31.6497 233.686H61.7614C61.9948 233.686 62.2049 233.616 62.3916 233.476C62.5783 233.289 62.6717 233.079 62.6717 232.846V202.733C62.6717 202.5 62.5783 202.313 62.3916 202.173C62.2049 201.986 61.9948 201.893 61.7614 201.893H31.6497C31.4163 201.893 31.2062 201.986 31.0195 202.173C30.8795 202.313 30.8094 202.5 30.8094 202.733V232.846C30.8094 233.079 30.8795 233.289 31.0195 233.476C31.2062 233.616 31.4163 233.686 31.6497 233.686Z" fill="#0ECCED"/>
<path d="M93.1887 243C91.4147 243 89.7807 242.556 88.2868 241.669C86.8396 240.782 85.6725 239.615 84.7855 238.168C83.8985 236.674 83.455 235.04 83.455 233.266V192.579H92.6985V232.846C92.6985 233.079 92.7686 233.289 92.9086 233.476C93.0953 233.616 93.3054 233.686 93.5389 233.686H123.65C123.884 233.686 124.094 233.616 124.281 233.476C124.467 233.289 124.561 233.079 124.561 232.846V192.579H133.874V233.266C133.874 235.04 133.431 236.674 132.544 238.168C131.657 239.615 130.466 240.782 128.973 241.669C127.525 242.556 125.915 243 124.141 243H93.1887Z" fill="#0ECCED"/>
<path d="M151.11 243C149.336 243 147.702 242.556 146.208 241.669C144.761 240.782 143.594 239.615 142.707 238.168C141.82 236.674 141.376 235.04 141.376 233.266V229.414H150.62V232.846C150.62 233.079 150.69 233.289 150.83 233.476C151.016 233.616 151.227 233.686 151.46 233.686H181.642C181.875 233.686 182.062 233.616 182.202 233.476C182.389 233.289 182.482 233.079 182.482 232.846V223.252C182.482 223.018 182.389 222.832 182.202 222.692C182.062 222.552 181.875 222.482 181.642 222.482H151.11C149.336 222.482 147.702 222.038 146.208 221.151C144.761 220.264 143.594 219.097 142.707 217.65C141.82 216.156 141.376 214.498 141.376 212.678V202.313C141.376 200.539 141.82 198.929 142.707 197.481C143.594 195.987 144.761 194.797 146.208 193.91C147.702 193.023 149.336 192.579 151.11 192.579H182.062C183.836 192.579 185.446 193.023 186.894 193.91C188.388 194.797 189.578 195.987 190.465 197.481C191.352 198.929 191.796 200.539 191.796 202.313V206.165H182.482V202.733C182.482 202.5 182.389 202.313 182.202 202.173C182.062 201.986 181.875 201.893 181.642 201.893H151.46C151.227 201.893 151.016 201.986 150.83 202.173C150.69 202.313 150.62 202.5 150.62 202.733V212.327C150.62 212.561 150.69 212.748 150.83 212.888C151.016 213.028 151.227 213.098 151.46 213.098H182.062C183.836 213.098 185.446 213.541 186.894 214.428C188.388 215.315 189.578 216.506 190.465 218C191.352 219.447 191.796 221.081 191.796 222.902V233.266C191.796 235.04 191.352 236.674 190.465 238.168C189.578 239.615 188.388 240.782 186.894 241.669C185.446 242.556 183.836 243 182.062 243H151.11Z" fill="#0ECCED"/>
<path d="M199.581 243V192.579H240.196C241.97 192.579 243.604 193.023 245.098 193.91C246.592 194.797 247.782 195.987 248.669 197.481C249.556 198.929 250 200.539 250 202.313V233.266C250 235.04 249.556 236.674 248.669 238.168C247.782 239.615 246.592 240.782 245.098 241.669C243.604 242.556 241.97 243 240.196 243H199.581ZM209.594 233.686H239.776C240.009 233.686 240.22 233.616 240.406 233.476C240.593 233.289 240.686 233.079 240.686 232.846V202.733C240.686 202.5 240.593 202.313 240.406 202.173C240.22 201.986 240.009 201.893 239.776 201.893H209.594C209.361 201.893 209.151 201.986 208.964 202.173C208.824 202.313 208.754 202.5 208.754 202.733V232.846C208.754 233.079 208.824 233.289 208.964 233.476C209.151 233.616 209.361 233.686 209.594 233.686Z" fill="#0ECCED"/>
</svg>
