<svg width="583" height="154" viewBox="0 0 583 154" fill="none" xmlns="http://www.w3.org/2000/svg">
<path d="M176.281 0H69.9744C49.0288 0 32.0629 17.2146 32.0629 38.4469V115.553C32.0629 136.785 49.0288 154 69.9744 154H176.281C189.01 154 200.256 147.647 207.136 137.896C211.599 131.608 214.209 123.883 214.209 115.553V38.4469C214.209 17.2146 197.227 0 176.281 0ZM176.281 121.335H69.9744C66.8326 121.335 64.2869 118.738 64.2869 115.553V38.4469C64.2869 35.2621 66.8326 32.6652 69.9744 32.6652H176.281C179.423 32.6652 181.985 35.2621 181.985 38.4469V115.553C181.985 115.553 181.985 115.716 181.969 115.798C181.856 118.869 179.343 121.335 176.281 121.335Z" fill="#043780"/>
<path d="M246.256 61.2799H0V92.6874H246.256V61.2799Z" fill="#043780"/>
<path d="M241.39 121.841V153.788L241.18 154L221.943 145.066C218.801 143.547 215.723 142.061 212.727 140.607C210.729 139.644 208.86 138.729 207.136 137.896C206.266 137.471 205.444 137.063 204.638 136.671C202.254 135.495 200.24 134.417 198.613 133.454L192.264 120.584L181.969 115.798C181.969 115.798 181.985 115.635 181.985 115.553L181.985 85.8114C184.837 87.1834 187.721 88.6206 190.621 90.0906C195.535 92.5731 200.449 95.2027 205.363 97.9792L211.712 108.759L214.209 109.853L241.39 121.841Z" fill="#043780"/>
<path d="M337.622 110.6V97.496L351.628 96.404H359.086V110.6H337.622ZM299.606 110.6C297.181 110.6 294.938 109.993 292.876 108.78C290.815 107.567 289.178 105.929 287.965 103.866C286.753 101.803 286.146 99.5587 286.146 97.132V58.548C286.146 56.0607 286.753 53.816 287.965 51.814C289.178 49.7513 290.815 48.1133 292.876 46.9C294.938 45.6867 297.181 45.08 299.606 45.08H338.168C340.593 45.08 342.806 45.6867 344.807 46.9C346.868 48.1133 348.505 49.7513 349.718 51.814C350.991 53.816 351.628 56.0607 351.628 58.548V97.132C351.628 99.5587 350.991 101.803 349.718 103.866C348.505 105.929 346.868 107.567 344.807 108.78C342.806 109.993 340.593 110.6 338.168 110.6H299.606ZM300.243 96.404H337.349V59.276H300.243V96.404Z" fill="#043780"/>
<path d="M379.984 110.6C377.559 110.6 375.316 109.993 373.254 108.78C371.193 107.567 369.556 105.929 368.343 103.866C367.13 101.803 366.524 99.5587 366.524 97.132V45.08H380.621V96.404H417.727V45.08H432.006V97.132C432.006 99.5587 431.369 101.803 430.096 103.866C428.883 105.929 427.246 107.567 425.185 108.78C423.184 109.993 420.971 110.6 418.546 110.6H379.984Z" fill="#043780"/>
<path d="M455.299 110.6C452.874 110.6 450.631 109.993 448.569 108.78C446.508 107.567 444.871 105.929 443.658 103.866C442.446 101.803 441.839 99.5587 441.839 97.132V91.035H455.936V96.404H493.042V84.938H455.299C452.874 84.938 450.631 84.3313 448.569 83.118C446.508 81.9047 444.871 80.297 443.658 78.295C442.446 76.2323 441.839 73.9573 441.839 71.47V58.548C441.839 56.0607 442.446 53.816 443.658 51.814C444.871 49.7513 446.508 48.1133 448.569 46.9C450.631 45.6867 452.874 45.08 455.299 45.08H493.861C496.286 45.08 498.499 45.6867 500.5 46.9C502.561 48.1133 504.198 49.7513 505.411 51.814C506.684 53.816 507.321 56.0607 507.321 58.548V64.645H493.042V59.276H455.936V70.742H493.861C496.286 70.742 498.499 71.3487 500.5 72.562C502.561 73.7753 504.198 75.4133 505.411 77.476C506.684 79.478 507.321 81.7227 507.321 84.21V97.132C507.321 99.5587 506.684 101.803 505.411 103.866C504.198 105.929 502.561 107.567 500.5 108.78C498.499 109.993 496.286 110.6 493.861 110.6H455.299Z" fill="#043780"/>
<path d="M517.518 110.6V45.08H569.449C571.935 45.08 574.178 45.6867 576.179 46.9C578.24 48.1133 579.878 49.7513 581.09 51.814C582.363 53.816 583 56.0607 583 58.548V97.132C583 99.5587 582.363 101.803 581.09 103.866C579.878 105.929 578.24 107.567 576.179 108.78C574.178 109.993 571.935 110.6 569.449 110.6H517.518ZM531.524 96.404H568.721V59.276H531.524V96.404Z" fill="#043780"/>
</svg>
