<svg width="303" height="154" viewBox="0 0 303 154" fill="none" xmlns="http://www.w3.org/2000/svg">
<path d="M176.544 0H70.0787C49.1019 0 32.1106 17.2146 32.1106 38.4469V115.553C32.1106 136.785 49.1019 154 70.0787 154H176.544C189.291 154 200.554 147.647 207.444 137.896C211.914 131.608 214.528 123.883 214.528 115.553V38.4469C214.528 17.2146 197.521 0 176.544 0ZM176.544 121.335H70.0787C66.9321 121.335 64.3827 118.738 64.3827 115.553V38.4469C64.3827 35.2621 66.9321 32.6652 70.0787 32.6652H176.544C179.691 32.6652 182.256 35.2621 182.256 38.4469V115.553C182.256 115.553 182.256 115.716 182.24 115.798C182.127 118.869 179.61 121.335 176.544 121.335Z" fill="#025EC4"/>
<path d="M246.623 61.2799H0V92.6874H246.623V61.2799Z" fill="#025EC4"/>
<path d="M241.75 121.841V153.788L241.54 154L222.273 145.066C219.127 143.547 216.045 142.061 213.044 140.607C211.043 139.644 209.171 138.729 207.444 137.896C206.573 137.471 205.75 137.063 204.943 136.671C202.555 135.495 200.538 134.417 198.908 133.454L192.551 120.584L182.24 115.798C182.24 115.798 182.256 115.635 182.256 115.553L182.256 85.8114C185.112 87.1834 188.001 88.6206 190.905 90.0906C195.827 92.5731 200.748 95.2027 205.669 97.9792L212.027 108.759L214.528 109.853L241.75 121.841Z" fill="#025EC4"/>
<path d="M293.163 35.7V30.324L299.469 29.358V29.61H303V35.7H293.163ZM275.255 35.7C274.134 35.7 273.111 35.434 272.186 34.902C271.289 34.342 270.561 33.614 270 32.718C269.468 31.794 269.201 30.772 269.201 29.652V11.508C269.201 10.388 269.468 9.38 270 8.484C270.561 7.56 271.289 6.832 272.186 6.3C273.111 5.74 274.134 5.46 275.255 5.46H293.415C294.508 5.46 295.503 5.74 296.4 6.3C297.325 6.832 298.068 7.56 298.628 8.484C299.189 9.38 299.469 10.388 299.469 11.508V29.652C299.469 30.772 299.189 31.794 298.628 32.718C298.068 33.614 297.325 34.342 296.4 34.902C295.503 35.434 294.508 35.7 293.415 35.7H275.255ZM275.507 29.61H293.079C293.163 29.61 293.219 29.596 293.247 29.568C293.303 29.512 293.331 29.442 293.331 29.358V11.802C293.331 11.718 293.303 11.662 293.247 11.634C293.219 11.578 293.163 11.55 293.079 11.55H275.507C275.423 11.55 275.353 11.578 275.297 11.634C275.269 11.662 275.255 11.718 275.255 11.802V29.358C275.255 29.442 275.269 29.512 275.297 29.568C275.353 29.596 275.423 29.61 275.507 29.61Z" fill="#025EC4"/>
<path d="M276.425 74.2C275.304 74.2 274.281 73.934 273.356 73.402C272.459 72.842 271.731 72.114 271.17 71.218C270.638 70.294 270.371 69.272 270.371 68.152V43.96H276.425V67.858C276.425 67.942 276.439 68.012 276.467 68.068C276.523 68.096 276.593 68.11 276.677 68.11H294.249C294.333 68.11 294.389 68.096 294.417 68.068C294.473 68.012 294.501 67.942 294.501 67.858V43.96H300.639V68.152C300.639 69.272 300.359 70.294 299.798 71.218C299.238 72.114 298.495 72.842 297.57 73.402C296.673 73.934 295.678 74.2 294.585 74.2H276.425Z" fill="#025EC4"/>
<path d="M276.403 112.7C275.31 112.7 274.302 112.434 273.377 111.902C272.452 111.342 271.723 110.614 271.191 109.718C270.658 108.794 270.392 107.772 270.392 106.652V104.09H276.445V106.358C276.445 106.442 276.46 106.512 276.488 106.568C276.544 106.596 276.6 106.61 276.656 106.61H294.27C294.326 106.61 294.382 106.596 294.438 106.568C294.494 106.512 294.522 106.442 294.522 106.358V100.856C294.522 100.8 294.494 100.758 294.438 100.73C294.382 100.674 294.326 100.646 294.27 100.646H276.403C275.31 100.646 274.302 100.38 273.377 99.848C272.452 99.288 271.723 98.546 271.191 97.622C270.658 96.698 270.392 95.69 270.392 94.598V88.508C270.392 87.388 270.658 86.38 271.191 85.484C271.723 84.56 272.452 83.832 273.377 83.3C274.302 82.74 275.31 82.46 276.403 82.46H294.606C295.699 82.46 296.694 82.74 297.591 83.3C298.515 83.832 299.258 84.56 299.819 85.484C300.379 86.38 300.659 87.388 300.659 88.508V91.07H294.522V88.802C294.522 88.718 294.494 88.662 294.438 88.634C294.382 88.578 294.326 88.55 294.27 88.55H276.656C276.6 88.55 276.544 88.578 276.488 88.634C276.46 88.662 276.445 88.718 276.445 88.802V94.304C276.445 94.36 276.46 94.416 276.488 94.472C276.544 94.5 276.6 94.514 276.656 94.514H294.606C295.699 94.514 296.694 94.794 297.591 95.354C298.515 95.886 299.258 96.614 299.819 97.538C300.379 98.462 300.659 99.47 300.659 100.562V106.652C300.659 107.772 300.379 108.794 299.819 109.718C299.258 110.614 298.515 111.342 297.591 111.902C296.694 112.434 295.699 112.7 294.606 112.7H276.403Z" fill="#025EC4"/>
<path d="M270.416 151.2V120.96H294.588C295.709 120.96 296.718 121.24 297.615 121.8C298.54 122.332 299.283 123.06 299.843 123.984C300.404 124.88 300.684 125.888 300.684 127.008V145.152C300.684 146.272 300.404 147.294 299.843 148.218C299.283 149.114 298.54 149.842 297.615 150.402C296.718 150.934 295.709 151.2 294.588 151.2H270.416ZM276.68 145.11H294.294C294.378 145.11 294.434 145.096 294.462 145.068C294.518 145.012 294.546 144.942 294.546 144.858V127.302C294.546 127.218 294.518 127.162 294.462 127.134C294.434 127.078 294.378 127.05 294.294 127.05H276.68C276.624 127.05 276.568 127.078 276.512 127.134C276.456 127.162 276.428 127.218 276.428 127.302V144.858C276.428 144.942 276.456 145.012 276.512 145.068C276.568 145.096 276.624 145.11 276.68 145.11Z" fill="#025EC4"/>
</svg>
