<svg width="357" height="347" viewBox="0 0 357 347" fill="none" xmlns="http://www.w3.org/2000/svg">
<path d="M251.978 0H100.022C70.0822 0 45.8309 24.5922 45.8309 54.9242V165.076C45.8309 195.408 70.0822 220 100.022 220H251.978C270.172 220 286.248 210.924 296.082 196.994C302.461 188.011 306.192 176.975 306.192 165.076V54.9242C306.192 24.5922 281.918 0 251.978 0ZM251.978 173.335H100.022C95.531 173.335 91.8922 169.626 91.8922 165.076V54.9242C91.8922 50.3744 95.531 46.6645 100.022 46.6645H251.978C256.469 46.6645 260.131 50.3744 260.131 54.9242V165.076C260.131 165.076 260.131 165.309 260.108 165.426C259.947 169.812 256.354 173.335 251.978 173.335Z" fill="white"/>
<path d="M352 87.5427H0V132.411H352V87.5427Z" fill="white"/>
<path d="M345.045 174.059V219.697L344.745 220L317.247 207.237C312.756 205.067 308.357 202.944 304.073 200.868C301.217 199.491 298.546 198.184 296.082 196.994C294.838 196.388 293.663 195.804 292.512 195.244C289.103 193.565 286.225 192.025 283.898 190.648L274.824 172.262L260.108 165.426C260.108 165.426 260.131 165.192 260.131 165.076L260.131 122.588C264.207 124.548 268.33 126.601 272.475 128.701C279.5 132.247 286.524 136.004 293.548 139.97L302.622 155.37L306.192 156.933L345.045 174.059Z" fill="white"/>
<path d="M88.1965 347V336L102.796 332.4V333.7H111.396V347H88.1965ZM44.6965 347C42.1632 347 39.8298 346.367 37.6965 345.1C35.6298 343.833 33.9632 342.167 32.6965 340.1C31.4298 337.967 30.7965 335.633 30.7965 333.1V288.9C30.7965 286.367 31.4298 284.067 32.6965 282C33.9632 279.867 35.6298 278.167 37.6965 276.9C39.8298 275.633 42.1632 275 44.6965 275H88.8965C91.4298 275 93.7298 275.633 95.7965 276.9C97.9298 278.167 99.6298 279.867 100.896 282C102.163 284.067 102.796 286.367 102.796 288.9V333.1C102.796 335.633 102.163 337.967 100.896 340.1C99.6298 342.167 97.9298 343.833 95.7965 345.1C93.7298 346.367 91.4298 347 88.8965 347H44.6965ZM45.1965 333.7H88.1965C88.5298 333.7 88.8298 333.6 89.0965 333.4C89.3632 333.133 89.4965 332.833 89.4965 332.5V289.5C89.4965 289.167 89.3632 288.9 89.0965 288.7C88.8298 288.433 88.5298 288.3 88.1965 288.3H45.1965C44.8632 288.3 44.5632 288.433 44.2965 288.7C44.0965 288.9 43.9965 289.167 43.9965 289.5V332.5C43.9965 332.833 44.0965 333.133 44.2965 333.4C44.5632 333.6 44.8632 333.7 45.1965 333.7Z" fill="white"/>
<path d="M133.075 347C130.542 347 128.209 346.367 126.075 345.1C124.009 343.833 122.342 342.167 121.075 340.1C119.809 337.967 119.175 335.633 119.175 333.1V275H132.375V332.5C132.375 332.833 132.475 333.133 132.675 333.4C132.942 333.6 133.242 333.7 133.575 333.7H176.575C176.909 333.7 177.209 333.6 177.475 333.4C177.742 333.133 177.875 332.833 177.875 332.5V275H191.175V333.1C191.175 335.633 190.542 337.967 189.275 340.1C188.009 342.167 186.309 343.833 184.175 345.1C182.109 346.367 179.809 347 177.275 347H133.075Z" fill="white"/>
<path d="M215.788 347C213.255 347 210.921 346.367 208.788 345.1C206.721 343.833 205.055 342.167 203.788 340.1C202.521 337.967 201.888 335.633 201.888 333.1V327.6H215.088V332.5C215.088 332.833 215.188 333.133 215.388 333.4C215.655 333.6 215.955 333.7 216.288 333.7H259.388C259.721 333.7 259.988 333.6 260.188 333.4C260.455 333.133 260.588 332.833 260.588 332.5V318.8C260.588 318.467 260.455 318.2 260.188 318C259.988 317.8 259.721 317.7 259.388 317.7H215.788C213.255 317.7 210.921 317.067 208.788 315.8C206.721 314.533 205.055 312.867 203.788 310.8C202.521 308.667 201.888 306.3 201.888 303.7V288.9C201.888 286.367 202.521 284.067 203.788 282C205.055 279.867 206.721 278.167 208.788 276.9C210.921 275.633 213.255 275 215.788 275H259.988C262.521 275 264.821 275.633 266.888 276.9C269.021 278.167 270.721 279.867 271.988 282C273.255 284.067 273.888 286.367 273.888 288.9V294.4H260.588V289.5C260.588 289.167 260.455 288.9 260.188 288.7C259.988 288.433 259.721 288.3 259.388 288.3H216.288C215.955 288.3 215.655 288.433 215.388 288.7C215.188 288.9 215.088 289.167 215.088 289.5V303.2C215.088 303.533 215.188 303.8 215.388 304C215.655 304.2 215.955 304.3 216.288 304.3H259.988C262.521 304.3 264.821 304.933 266.888 306.2C269.021 307.467 270.721 309.167 271.988 311.3C273.255 313.367 273.888 315.7 273.888 318.3V333.1C273.888 335.633 273.255 337.967 271.988 340.1C270.721 342.167 269.021 343.833 266.888 345.1C264.821 346.367 262.521 347 259.988 347H215.788Z" fill="white"/>
<path d="M285.005 347V275H343.005C345.538 275 347.872 275.633 350.005 276.9C352.138 278.167 353.838 279.867 355.105 282C356.372 284.067 357.005 286.367 357.005 288.9V333.1C357.005 335.633 356.372 337.967 355.105 340.1C353.838 342.167 352.138 343.833 350.005 345.1C347.872 346.367 345.538 347 343.005 347H285.005ZM299.305 333.7H342.405C342.738 333.7 343.038 333.6 343.305 333.4C343.572 333.133 343.705 332.833 343.705 332.5V289.5C343.705 289.167 343.572 288.9 343.305 288.7C343.038 288.433 342.738 288.3 342.405 288.3H299.305C298.972 288.3 298.672 288.433 298.405 288.7C298.205 288.9 298.105 289.167 298.105 289.5V332.5C298.105 332.833 298.205 333.133 298.405 333.4C298.672 333.6 298.972 333.7 299.305 333.7Z" fill="white"/>
</svg>
