<svg width="735" height="454" viewBox="0 0 735 454" fill="none" xmlns="http://www.w3.org/2000/svg">
<path d="M526.147 0H208.853C146.336 0 95.6981 50.7494 95.6981 113.344V340.656C95.6981 403.251 146.336 454 208.853 454H526.147C564.138 454 597.704 435.27 618.239 406.525C631.56 387.987 639.35 365.213 639.35 340.656V113.344C639.35 50.7494 588.664 0 526.147 0ZM526.147 357.701H208.853C199.475 357.701 191.877 350.046 191.877 340.656V113.344C191.877 103.954 199.475 96.2987 208.853 96.2987H526.147C535.525 96.2987 543.171 103.954 543.171 113.344V340.656C543.171 340.656 543.171 341.138 543.123 341.379C542.786 350.431 535.284 357.701 526.147 357.701Z" fill="white"/>
<path d="M735 180.656H0V273.247H735V180.656Z" fill="white"/>
<path d="M720.477 359.194V453.374L719.852 454L662.433 427.662C653.055 423.184 643.87 418.803 634.926 414.518C628.963 411.677 623.384 408.98 618.239 406.525C615.642 405.273 613.189 404.069 610.785 402.914C603.668 399.447 597.656 396.269 592.799 393.428L573.852 355.487L543.123 341.379C543.123 341.379 543.171 340.897 543.171 340.656L543.171 252.977C551.683 257.021 560.291 261.258 568.947 265.592C583.614 272.91 598.281 280.662 612.949 288.848L631.896 320.626L639.35 323.852L720.477 359.194Z" fill="white"/>
</svg>
